<?xml version="1.0" encoding="UTF-8"?>
<svg width="82px" height="69px" viewBox="0 0 82 69" version="1.1" xmlns="http://www.w3.org/2000/svg" xmlns:xlink="http://www.w3.org/1999/xlink">
    <!-- Generator: Sketch 41.2 (35397) - http://www.bohemiancoding.com/sketch -->
    <title>Shape</title>
    <desc>Created with Sketch.</desc>
    <defs></defs>
    <g id="Page-1" stroke="none" stroke-width="1" fill="none" fill-rule="evenodd">
        <path d="M34.9,11.7 C34.5,12.5 34.1,12.8 34.2,13.4 C34.3,14 34.9,14.3 35.1,14.9 C35.4,14.2 35.8,13.8 35.8,13.2 L34.9,11.7 L34.9,11.7 Z M44.8,11.7 C46,14.2 45.3,13.5 44.5,14.9 C44.2,14.2 43.8,13.8 43.8,13.2 C44,12.9 44.6,12.1 44.8,11.7 L44.8,11.7 Z M29.3,11.3 C29.7,11.3 30,11 30,10.6 C30,9.7 28.7,9.7 28.7,10.6 C28.6,11.1 28.9,11.3 29.3,11.3 L29.3,11.3 Z M29.7,12.3 C29.7,11.4 28.4,11.4 28.4,12.3 C28.4,13.2 29.7,13.1 29.7,12.3 L29.7,12.3 Z M30,13.9 C30,13 28.7,13 28.7,13.9 C28.7,14.8 30,14.8 30,13.9 L30,13.9 Z M33,8.2 C33.9,8.2 33.9,6.9 33,6.9 C32.1,6.9 32.1,8.2 33,8.2 L33,8.2 Z M31.3,8.7 C32.2,8.7 32.2,7.4 31.3,7.4 C30.4,7.4 30.4,8.7 31.3,8.7 L31.3,8.7 Z M30,9.8 C30.9,9.8 30.9,8.5 30,8.5 C29.2,8.5 29.2,9.8 30,9.8 L30,9.8 Z M34.7,8.3 C35.6,8.3 35.6,7 34.7,7 C33.8,7 33.8,8.3 34.7,8.3 L34.7,8.3 Z M36.4,8.8 C37.3,8.8 37.3,7.5 36.4,7.5 C35.4,7.5 35.5,8.8 36.4,8.8 L36.4,8.8 Z M37.9,9.5 C38.8,9.5 38.8,8.2 37.9,8.2 C37,8.2 37,9.5 37.9,9.5 L37.9,9.5 Z M49.8,10.7 C49.8,11.6 51.1,11.6 51.1,10.7 C51.1,9.8 49.8,9.8 49.8,10.7 L49.8,10.7 Z M50.6,11.6 C49.7,11.6 49.7,12.9 50.6,12.9 C51,12.9 51.3,12.6 51.3,12.2 C51.3,11.9 51,11.6 50.6,11.6 L50.6,11.6 Z M50.3,13.2 C49.4,13.2 49.4,14.5 50.3,14.5 C50.7,14.5 51,14.2 51,13.8 C51,13.5 50.7,13.2 50.3,13.2 L50.3,13.2 Z M46.7,8.2 C47.6,8.2 47.6,6.9 46.7,6.9 C46.3,6.9 46,7.2 46,7.6 C46,7.8 46.3,8.2 46.7,8.2 L46.7,8.2 Z M48.4,8.7 C49.3,8.7 49.3,7.4 48.4,7.4 C47.5,7.4 47.5,8.7 48.4,8.7 L48.4,8.7 Z M49.7,9.8 C50.6,9.8 50.6,8.5 49.7,8.5 C49.3,8.5 49,8.8 49,9.2 C49,9.6 49.4,9.8 49.7,9.8 L49.7,9.8 Z M45,8.3 C45.9,8.3 45.9,7 45,7 C44.1,7 44.2,8.3 45,8.3 L45,8.3 Z M43.4,8.8 C44.3,8.8 44.3,7.5 43.4,7.5 C42.4,7.5 42.4,8.8 43.4,8.8 L43.4,8.8 Z M41.1,8.9 C41.1,9.3 41.4,9.6 41.8,9.6 C42.7,9.6 42.7,8.3 41.8,8.3 C41.4,8.2 41.1,8.5 41.1,8.9 L41.1,8.9 Z M38.7,12.5 L39.5,12.5 L39.5,9.7 C39.2,9.7 39,9.6 38.7,9.5 L38.7,12.5 Z M41,9.4 C40.8,9.5 40.5,9.6 40.2,9.6 L40.2,12.4 L41,12.4 L41,9.4 L41,9.4 Z M39.4,6.2 L39.4,4.6 C38.5,4.8 37.9,5.5 37.8,6.3 L39.4,6.2 Z M40.3,6.2 L41.9,6.2 C41.7,5.3 41.1,4.7 40.3,4.5 L40.3,6.2 Z M37.8,7.1 C38.3,9.3 41.4,9.3 41.9,7.1 L37.8,7.1 Z M41,4.3 C40.5,3.9 40.1,3.4 40.1,2.8 C40.7,2.9 41.2,3.3 41.6,3.7 L41.6,1.5 C41.2,2 40.7,2.4 40.1,2.4 C40.2,1.8 40.5,1.4 41,0.8 L38.8,0.8 C39.3,1.4 39.7,1.8 39.7,2.4 C39,2.3 38.5,2 38.1,1.5 L38.1,3.8 C38.5,3.3 39,2.9 39.6,2.9 C39.5,3.5 39.1,4 38.7,4.4 C38.6,4.3 41,4.3 41,4.3 L41,4.3 Z M41,52.1 C40,52.1 40,50.5 41,50.5 C42.2,50.4 42.2,52.1 41,52.1 L41,52.1 Z M37.1,50.8 C36,50.8 36,49 37.1,49 C38.4,49 38.4,50.8 37.1,50.8 L37.1,50.8 Z M35.8,46.8 C34.9,46 34.7,46.3 33.7,47.4 C34.6,48.2 34.4,49.1 33,48.3 C32.1,49.7 32.1,49.7 33.7,50.6 C32.8,51.2 30.6,50.2 32.3,47.6 L31.9,46.9 C32.2,46.9 32.4,47 32.7,47.1 C35.4,44.2 36.7,47.6 35.8,46.8 L35.8,46.8 Z M43.5,50 C41.4,49.4 38.9,48.6 36.6,47.5 C36.7,46.3 35.7,45.4 34.8,45.4 C34.2,45.4 34.3,45.9 33.2,44.5 C32.3,43.5 31.6,42.2 31.1,40.9 C30.8,40.1 30.6,39.4 30.5,38.5 C30.4,39.2 29.6,40.1 28.3,40.1 C28.5,38.9 28,40.6 26.1,40 C26.3,40.9 26.6,41.8 26.9,42.8 C27.6,44.7 28.6,46.4 29.9,47.8 C30.3,48.3 30.8,48.7 31.2,49.1 L31.2,49.4 C31.2,50.3 32.6,51.9 34,50.8 C36.3,52 39.7,52.9 42,52.9 C43,52.9 44.4,52.4 45.7,51.6 C46.3,51.2 46.7,50.8 47.2,50.4 C46.2,50.6 44.7,50.3 43.5,50 L43.5,50 Z M42.8,58.5 C42.6,58.2 42.4,58 42.2,58 C41.3,58 41.7,60.3 40.7,60.3 C40.2,60.3 40,60 40,59.7 L40.2,59 C40.2,58.5 39.3,58.5 39.3,59 L39.5,59.7 C39.5,60 39.2,60.3 38.8,60.3 C37.8,60.3 38.1,58 37.3,58 C37.1,58 36.9,58.2 36.7,58.5 C36.1,57.4 36.7,56.6 37.5,56.6 C38.6,56.6 38.4,58.1 38.9,58.1 C39.2,58.1 39.3,57.9 39.3,57.7 C39.3,56.8 37.2,56.6 39.7,54.6 C42.2,56.6 40.1,56.8 40.1,57.7 C40.1,57.9 40.3,58.1 40.5,58.1 C41.1,58.1 40.8,56.6 41.9,56.6 C42.6,56.6 42.8,57.2 42.8,57.5 C43.1,57.8 43,58.1 42.8,58.5 L42.8,58.5 Z M39.9,61.6 C39.1,61.6 39.1,60.5 39.9,60.5 C40.6,60.5 40.6,61.6 39.9,61.6 L39.9,61.6 Z M42.2,56.1 C42,56.1 41.9,56.1 41.8,56.2 L41.8,53.7 C40.7,53.7 39.4,53.5 38.1,53.1 L38.1,56.1 C36.8,55.6 35.3,57.2 37,59 C37.9,56.7 37.6,60.4 39.1,60.5 C39.1,60.6 39,60.7 39,60.9 C39,62.4 41.5,62 40.9,60.5 C42.4,60.4 41.8,56.7 43,59 C43.3,58.6 43.7,58.1 43.7,57.4 C43.6,56.9 43,56.1 42.2,56.1 L42.2,56.1 Z M71.6,59.2 C71.5,59.1 71.4,59 71.3,59 C64.8,60.9 52.7,44.7 48.8,54 C47.5,57.2 45.1,58.3 49.6,60.5 C50.2,60.8 50.5,61 50.6,61.3 C46.3,63.2 38.9,63.6 33.6,62.6 C27.2,61.5 29.3,60.9 30.8,60.1 C34.6,58.1 32.4,57.3 31.1,54 C28.6,48.1 21.4,53.3 18.8,55.1 C15.3,57.5 11.7,59.8 8.7,59 C8.4,58.9 8.2,59.4 8.5,59.5 C13,61.5 12.1,65.6 21.2,59.4 C23.5,57.8 25.9,56.2 28.2,56 C25,59.3 26.3,57.9 28.1,64.4 C29,68.1 36.2,68.3 40.1,68.3 C44.8,68.3 48.1,67.8 50,66.8 C52.8,65.4 51.6,64.1 53.3,60.8 C54.8,58 53.4,57.5 51.9,56 C56.6,56.4 61.6,62.7 66,62.7 C67.9,62.7 69.4,60.4 71.6,59.5 L71.6,59.2 L71.6,59.2 Z M40.3,36.4 L40.3,25.4 C45.6,25.7 49.3,30.7 49.4,36.4 L40.3,36.4 Z M39.9,20.8 C36.8,20.8 34.6,21.7 33.4,22.5 C32.6,22 32.4,21.6 32.4,21.2 C32.4,19.4 37.4,19.3 40,19.3 C42.6,19.3 47.6,19.5 47.6,21.2 C47.6,21.7 47.3,22.1 46.6,22.5 C45.1,21.7 43,20.8 39.9,20.8 L39.9,20.8 Z M39.7,36.4 L30.3,36.4 C30.4,30.4 34.5,25.5 39.7,25.4 L39.7,36.4 Z M53.9,35.7 C53.6,35.4 53,34.9 52.8,34.4 C50.6,29.8 50,29.8 50.8,28.8 L51.7,27.9 C50.7,26.2 49,24.3 47,23 C47.6,22.6 48.1,22.1 48.1,21.2 C48.1,20.7 47.9,20.3 47.5,20 C48.1,18.1 49.1,15.8 50.1,14.9 L48.2,14.1 C48.7,14.9 48.8,15.7 48.6,16.2 C48.1,15.8 47.7,15.3 47.6,14.8 C47.5,15.4 47.2,16.3 46.9,16.9 C47.5,16.6 47.8,16.5 48.4,16.7 C47.3,18.2 44.7,17.4 44.7,16.4 C44.7,16.1 45,15.7 45.4,15.7 C45.8,15.7 45.9,16.4 45.7,16.6 C46.3,16.3 46.8,14.7 46,14.5 C45.3,14.3 44.8,15.3 44.5,15.9 C44,13 41.8,14.7 43.1,16.4 C43.2,15.8 43.5,15.5 43.8,15.5 C44,15.5 44.4,15.7 44.3,16.2 C44.2,16.7 43.5,17.1 42.7,17.1 C41.9,17.1 40.5,16.8 40.3,15.3 C40.8,15.4 41.6,15.8 42,16.3 C41.5,12.2 42.8,14.3 40.4,14.8 C40.6,14.1 41.1,13.5 41.7,13 L38.3,13 C39,13.4 39.5,14.1 39.6,14.8 C39.1,14.7 38.4,14.4 38,13.8 C38.5,18 37.1,15.9 39.6,15.3 C39.5,16.8 38.1,17.1 37.3,17.1 C35.4,17.1 35.3,15.7 36.2,15.6 C36.5,15.6 36.8,15.9 36.8,16.5 C38.1,14.8 35.9,13.1 35.4,16 C35.2,15.3 34.5,14.4 33.9,14.6 C33,14.8 33.6,16.4 34.2,16.7 C33.7,15.7 35.1,15.4 35.1,16.4 C35.1,16.9 34.4,17.3 33.8,17.4 C31.7,17.9 30.6,15.6 32.9,16.7 C32.6,16.1 32.3,15.2 32.2,14.6 C32,15.3 31.6,15.7 31.2,16 C31.1,15.5 31.1,14.6 31.6,13.8 L29.7,14.6 C30.6,15.5 31.7,17.8 32.3,19.7 C31.9,20 31.7,20.5 31.7,20.9 C31.7,21.8 32.3,22.3 32.8,22.7 C31.8,23.4 30.8,24.2 30,25.2 C28.7,26.6 27.7,28.3 27,30.2 C27.3,30.5 28.4,31.7 28.6,32 C29.9,33.7 28.8,33.9 30,35.4 C30.1,35.6 30.4,36.3 30.4,36.6 L39.9,36.6 L39.9,46.8 C39.5,46.8 39.1,46.9 38.9,47.3 C43.4,49.1 41.5,48.4 42.6,46.9 C42.6,46.9 41.3,46.8 40.5,46.7 L40.5,37 L49.6,37 C49.3,45.9 43.1,45.7 42.8,49.1 C43.3,49.2 43.5,49.3 43.8,49.4 C48,50.4 48,50.3 50,47.9 C51.3,46.5 52.3,44.8 53,42.9 C53.7,40.5 54,37.8 53.9,35.7 L53.9,35.7 Z M45.4,29.9 C45.3,30 45.3,30.1 45.3,30.2 C45.3,30.3 45.4,30.4 45.6,30.4 C45.5,30.5 45.4,30.6 45.4,30.8 C45.6,30.8 45.7,30.8 45.9,30.7 C45.9,30.9 45.9,31 46,31 L46.3,31 C47,32.1 47.4,33.4 47.6,34.7 C47.5,34.6 47.4,34.6 47.2,34.6 C47.2,34.8 47.3,34.9 47.4,35 L45.1,35 C45.1,34.8 45,34.7 44.9,34.7 C44.8,34.7 44.7,34.7 44.6,34.8 C44.6,34.7 44.5,34.5 44.4,34.4 C44.3,34.5 44.2,34.7 44.2,34.8 C44.1,34.7 44,34.6 43.9,34.7 C43.8,34.7 43.7,34.9 43.7,35 L41.7,35 C41.8,34.9 41.8,34.8 41.8,34.6 C41.6,34.6 41.5,34.7 41.4,34.8 L41.4,31.7 C41.6,31.7 41.7,31.6 41.7,31.5 C41.7,31.4 41.7,31.3 41.6,31.2 C41.7,31.2 41.9,31.1 42,31 C41.9,30.9 41.7,30.8 41.6,30.8 C41.7,30.7 41.7,30.6 41.7,30.5 C41.7,30.4 41.5,30.3 41.4,30.3 L41.4,27.6 C41.5,27.7 41.6,27.7 41.8,27.7 C41.8,27.5 41.8,27.4 41.7,27.3 C43.2,27.8 44.4,28.7 45.4,29.9 L45.4,29.9 Z M47.9,34.6 C48.1,34.7 48,35 47.8,35 C47.6,33.4 46.9,31.7 46,30.3 C46.2,30.1 46.4,30.2 46.4,29.8 C46.1,29.8 45.9,29.9 45.8,30.1 C44.8,28.7 43.2,27.4 41.4,27 C41.4,26.8 41.7,26.8 41.8,26.9 C41.8,26.5 41.3,26.3 41.2,26.7 C40.9,26.3 40.5,26.5 40.9,26.9 L40.7,27 C40.6,27.1 40.7,27.4 41,27.5 C40.9,27.4 40.9,27.1 41.1,27.2 L41.1,30.8 C40.9,30.7 40.7,30.8 40.5,31 C40.7,31.2 40.9,31.2 41.1,31.2 L41.1,35 C40.9,35 40.8,34.8 41,34.7 C40.5,34.7 40.5,35.3 40.9,35.3 C40.8,35.4 40.7,35.5 40.7,35.7 C40.9,35.7 41,35.6 41.1,35.5 C41.1,35.7 41.2,35.8 41.3,35.8 C41.4,35.9 41.7,35.7 41.7,35.4 C41.6,35.6 41.3,35.5 41.3,35.3 L44,35.3 C43.9,35.5 44,35.7 44.2,35.9 C44.4,35.7 44.4,35.5 44.4,35.3 L47.4,35.3 C47.4,35.5 47.2,35.6 47.1,35.4 C47.1,35.7 47.4,35.8 47.5,35.8 C47.6,35.8 47.7,35.7 47.6,35.5 C47.7,35.6 47.8,35.7 48,35.7 C48,35.5 47.9,35.4 47.8,35.3 C48,35.3 48.1,35.2 48.1,35.1 C48.4,34.9 48.2,34.6 47.9,34.6 L47.9,34.6 Z M46.3,33.6 L46.6,33.4 L46.3,33.4 C46.4,33.3 46.5,33.4 46.4,33.2 C46.3,33 46.2,33 46.1,33.1 C46,33.2 45.2,33.1 45.2,32.5 C45.3,32.6 45.4,32.7 45.5,32.7 L46,32.7 C46.2,32.7 46.3,32.6 46.3,32.4 C46.3,32.1 46,31.9 45.7,31.7 L45.4,31.4 C45.3,31.2 45.4,31 45.1,30.6 C45.1,30.5 45.1,30.4 45,30.2 C44.8,30.5 44.8,31 45.2,31.3 C45.5,31.7 46.1,32 46.1,32.2 C46.1,32.3 46,32.3 45.9,32.4 L45.7,32.4 C45.7,32.4 45.6,32.4 45.6,32.3 C45.5,32.3 45.4,32.2 45.4,32.1 C45.1,31.8 44.9,31.4 44.7,31.2 C44.4,30.8 44.5,30.4 44.6,30.2 C44.8,29.9 44.5,29.3 44.3,29.2 L44.3,28.9 L44.1,28.9 L44.1,29 C44,29 44,28.9 44,28.8 C43.9,28.9 43.9,28.9 43.8,28.9 L43.6,28.9 C43.5,29 43.5,29 43.4,29 C43.3,29 43.3,29.1 43.3,29.2 C43.3,29.3 43.3,29.4 43.4,29.4 L43.5,29.5 L43.6,29.4 C43.7,29.3 43.8,29.3 43.9,29.5 C43.9,29.6 43.9,29.6 43.8,29.6 L43.5,29.6 C43.4,29.6 43.4,29.7 43.4,29.8 C43.4,29.9 43.5,29.9 43.6,29.9 C43.8,29.9 44,29.8 44,30 C44,30.3 43.6,30.3 43.5,30.7 C43.4,30.6 43.3,30.6 43.3,30.5 C43.2,30.4 43.1,30.3 43,30.1 C42.9,30 42.8,29.9 42.7,29.9 C42.5,29.8 42.5,29.8 42.5,29.6 C42.5,29.5 42.6,29.4 42.5,29.3 L42.5,29.2 C42.5,29.1 42.4,29.1 42.3,29.1 L42.4,29.2 L42.3,29.3 L42.3,29.5 C42.3,29.4 42.2,29.3 42.2,29.3 L42.1,29.3 C42.1,29.2 42,29.1 41.9,29.2 L42,29.2 L42,29.3 C42,29.4 42.1,29.4 42.2,29.4 C42,29.3 42,29.4 42,29.5 L42,29.6 C41.9,29.6 41.9,29.7 42,29.8 L42,29.7 L42.1,29.7 C42,29.8 42,29.9 42.1,29.9 C42,30 41.9,30 41.9,29.8 C41.8,30 42,30.2 42.2,30.1 L42.2,30.3 C42.2,30.3 42.2,30.4 42.3,30.4 L42.3,30.3 L42.4,30.4 C42.5,30.6 42.7,31 43.1,31.1 C42.9,31.2 42.8,31.4 42.6,31.6 C42.5,31.7 42.3,31.8 42.2,31.8 L42.1,31.7 L42,31.7 C41.9,31.7 41.8,31.7 41.8,31.8 L41.9,31.8 L41.9,31.9 C41.9,31.9 41.9,32 42.1,32 L42,32 C41.9,32 41.9,31.9 41.8,32 L41.8,32.1 C41.7,32.1 41.6,32.3 41.7,32.4 C41.7,32.4 41.7,32.3 41.8,32.3 C41.9,32.4 41.9,32.4 42.1,32.2 C42.1,32.3 42,32.4 42.1,32.5 L42.2,32.5 C42.2,32.6 42.4,32.6 42.4,32.6 L42.3,32.5 L42.4,32.5 C42.5,32.4 42.4,32.3 42.4,32.3 C42.4,32.3 42.5,32.4 42.6,32.4 L42.7,32.3 C42.7,32 42.9,32 43,32 C43,31.9 43.1,31.8 43.2,31.8 L43.5,31.8 C43.5,31.7 43.6,31.6 43.7,31.5 C43.7,32.1 44.5,32.1 44.6,32.4 C44.4,32.3 44.1,32.2 43.9,32.3 C43.7,32.3 43.4,32.5 43.3,32.7 C43.3,32.9 43.5,33.2 43.7,33.3 L43.2,33.3 C43,33.3 43,33 42.8,33.1 L42.7,33.1 C42.6,33.1 42.5,33.2 42.5,33.3 L42.6,33.2 C42.6,33.2 42.6,33.3 42.7,33.3 L42.8,33.3 C42.8,33.4 42.5,33.3 42.6,33.5 L42.6,33.6 C42.6,33.7 42.6,33.7 42.8,33.7 C42.8,33.7 42.7,33.7 42.7,33.6 L42.8,33.6 L42.8,33.8 C42.8,33.9 42.9,34 43,33.9 C43,33.9 42.9,33.9 42.9,33.8 L43,33.8 L43,33.7 L43.1,33.7 C43.1,33.7 43.2,33.8 43.3,33.8 C43.3,33.8 43.4,33.8 43.4,33.7 C43.4,33.7 43.5,33.7 43.5,33.8 C43.5,33.7 43.5,33.6 43.7,33.8 L43.8,33.7 C43.8,33.7 44,33.8 44,33.7 C44.1,33.6 44.1,33.6 44.1,33.5 C44,33.3 44,33.3 43.9,33.2 C43.8,32.9 44.3,32.7 44.5,32.8 C44.5,33 44.8,33.5 45.3,33.6 C45.6,33.7 45.7,33.4 45.8,33.4 L45.8,33.8 C45.8,33.9 45.6,33.8 45.5,33.8 L45.4,33.8 C45.3,33.8 45.2,33.9 45.2,34 C45.2,34 45.3,33.9 45.4,33.9 C45.4,34 45.5,34.1 45.6,34 C45.5,34 45.4,34.2 45.5,34.2 L45.6,34.2 C45.6,34.3 45.6,34.3 45.7,34.4 L45.7,34.3 L45.8,34.3 L45.9,34.1 L45.9,34.3 L46,34.3 C46,34.4 46.1,34.4 46.2,34.4 C46.2,34.4 46.1,34.4 46.1,34.3 L46.2,34.2 C46.3,34 46.1,34 46.1,33.9 C46.1,33.8 46.2,33.8 46.3,33.6 C46.3,33.6 46.4,33.5 46.4,33.4 C46.4,33.6 46.3,33.6 46.3,33.6 L46.3,33.6 Z M37.8,38.7 C37.1,38.6 37.2,39.3 37.6,39.3 L37.7,39.3 C37.7,39.5 37.5,40.4 37.5,40.7 L36.1,38.7 C37.5,38.2 38,37.7 37.8,38.7 L37.8,38.7 Z M37.3,42.2 L35.1,39.1 C35.4,39 35.6,39 35.8,38.9 L37.4,41.3 L37.3,42.2 L37.3,42.2 Z M37,43.6 L34,39.1 L34.8,39.1 L37.3,42.7 L37,43.6 L37,43.6 Z M33.5,39.2 L36.9,44.1 C35.1,43.3 33.3,41.7 33.5,39.2 L33.5,39.2 Z M38.6,38.8 L38.4,38.8 C38.5,36.1 35.6,39.5 32.8,37.9 L32.6,38.3 C32.6,38.1 32.5,37.9 32.2,37.9 C31.4,37.9 32,39 32.5,38.5 L32.3,38.9 L32.5,39 C32.3,41.2 33.9,43.9 36.7,44.7 C37.1,44.6 37.6,44.6 37.6,45.1 C37.6,45.7 36.9,45.6 36.9,45.3 C36.9,45.1 37.2,45.2 37.3,45.1 C37.3,44.9 37.2,44.8 37,44.8 C36.2,44.8 36.3,45.8 37.2,45.8 C37.5,45.8 38.1,45.6 38.1,44.9 C38.3,44.9 38.4,44.9 38.5,44.7 L38.5,44.2 L38.3,44.2 L38.4,39.3 C39.1,39.4 39,38.8 38.6,38.8 L38.6,38.8 Z M36.2,28.3 L36.3,28.1 C36.3,28.1 36.1,28.2 36.3,28 C36.3,28 36.7,28.1 36.6,28.2 C36.6,28.2 36.6,28.1 36.5,28.1 L36.5,28.2 L36.3,28.5 C36.1,28.4 36.1,28.4 36.2,28.3 L36.2,28.3 Z M36.4,27.9 C36.4,28 36.3,28 36.4,27.9 L36.2,27.7 C36.2,27.9 36.4,27.9 36.4,27.9 L36.4,27.9 Z M36.5,28 L36.7,28.1 C36.6,28.1 36.6,28.2 36.6,28.2 C36.5,28.1 36.5,28 36.5,28 L36.5,28 Z M36,28 L38.1,28.8 C38.8,28.8 39.1,28.6 39.1,28.4 C39.1,27.7 36.6,28 37.4,27.5 C38.3,27.5 38.3,26.7 39,26.6 C38.2,26.5 38.1,27.1 37.8,27.2 C38,27.1 38.1,26.9 38,26.8 C37.9,27 37,27.3 37,27.7 C37,28.4 38.9,27.9 38.9,28.5 C38.9,29.1 37.2,28.6 36.7,28.7 C36.7,28.1 37.2,28.3 36.8,27.9 C36.8,27.8 36.8,27.8 36.6,27.7 L36.2,27.7 C36.1,27.6 36,27.7 36,27.8 C36,27.8 35.8,28 36,28 C35.9,28 35.9,28.1 36,28 L36,28.2 C35.9,28.4 35.9,28.6 35.9,28.6 C35.7,28.4 35.6,28.5 35.7,28.2 C35.7,28 35.8,28.1 35.8,27.8 L35.6,27.8 C35.5,27.9 35.6,27.9 35.6,28 C35.5,28.2 35.7,27.8 35.4,27.8 C35.4,27.7 35.4,27.6 35.2,27.7 L35.3,27.7 L35.3,27.8 C35.3,27.9 35.5,27.9 35.5,27.9 C35.5,28 35.3,27.8 35.3,28 C35.3,28.1 35.2,28.1 35.3,28.2 L35.3,28.1 L35.5,28.1 C35.6,28.2 35.3,28.3 35.6,28.3 C35.6,28.5 35.3,28.4 35.4,28.3 C35.2,28.5 35.4,28.6 35.6,28.5 C35.6,28.5 35.6,28.6 35.7,28.6 C35.7,28.6 35.7,28.7 35.8,28.7 C35.8,28.5 35.9,28.8 36,28.9 C35.9,29 34.9,29.2 34.9,29.1 C34.9,29 34.9,28.9 34.8,28.9 C34.4,28.8 34.6,28.9 34.7,28.9 C34.6,29 34.6,29 34.8,29.1 C34.8,29.1 34.8,29.2 34.7,29.1 C34.6,29 34.7,29 34.5,29 C34.4,29 34.3,29.1 34.3,29.2 C34.3,29.2 34.3,29.1 34.4,29.1 C34.5,29.2 34.5,29.3 34.7,29.2 C34.6,29.4 34.5,29.3 34.7,29.4 C34.6,29.5 34.7,29.6 34.8,29.6 C34.8,29.6 34.7,29.5 34.7,29.4 L34.8,29.4 C34.9,29.4 34.9,29.1 34.9,29.2 C34.9,29.5 35.3,29.2 35.2,29.2 L35.3,29.2 L35.3,29.4 L35.5,29.2 L35.7,29.2 L35.7,29.3 L35.7,29.2 C35.7,29.2 35.7,29.3 35.8,29.4 C35.8,29.1 36.3,29.1 36.1,29.2 C36.3,29.2 36.3,29.1 36.4,29 C36.5,29 36.6,29 36.6,28.9 L36.6,29 C36.8,29 37,28.8 37,28.8 C37.4,28.7 36.8,28.5 37.5,28.5 C37.6,28.5 37.7,28.5 37.7,28.4 C37.6,28.5 37.6,28.7 37.8,28.8 C37.9,28.8 38,28.9 38,28.9 L37.8,28.9 L37.4,28.7 C37.3,28.7 37.2,28.8 37.2,28.9 C37.4,28.7 37.3,28.9 37.4,28.9 L37.5,28.9 C37.5,29 37.3,28.9 37.3,29.1 C37.3,29.2 37.4,29.3 37.5,29.2 L37.5,29.1 C37.5,28.8 37.5,29.5 37.7,29.3 L37.7,29.2 C37.7,29.1 37.9,29.3 37.9,29.3 L38.1,29.1 C38.5,29.2 38.5,28.9 38.3,28.8 L38,28.6 C38.1,28.6 38.2,28.7 38.4,28.7 C38.7,28.7 38.4,28.4 38.9,28.6 C39,28.6 39,28.8 38.9,28.9 C38.9,29 38.8,28.9 38.7,28.9 L38.6,28.9 C38.5,28.9 38.5,29 38.5,29.1 L38.6,29 C38.6,29.1 38.7,29.2 38.8,29.1 C38.7,29.1 38.6,29.2 38.7,29.3 L38.8,29.5 L38.8,29.4 C39,29.4 38.8,29.3 38.9,29.2 C38.9,29.4 38.9,29.4 39,29.4 C39,29.5 39.1,29.5 39.2,29.4 C39.2,29.4 39.1,29.4 39.1,29.3 C39.3,29.1 39.1,29.2 39.1,29 C39.1,28.9 39.2,29 39.2,28.8 C39.2,28.7 39.1,28.7 39.1,28.7 L39.1,28.5 C39.1,28.5 39.2,28.4 39.1,28.3 C39.1,28.3 38.9,28.4 38.9,28.3 C38.8,29 38,28.8 38.1,28.8 L36,28 Z M34.5,31.2 C34.6,31 34.8,31.1 34.6,30.9 C34.7,30.9 34.7,30.9 34.7,30.8 C34.6,30.8 34.5,30.9 34.7,30.7 L35,30.8 C35.1,30.8 35.1,30.9 35,30.9 C35,30.9 35,30.8 34.9,30.8 L34.9,30.9 C34.7,30.9 34.7,30.9 34.8,31 L34.8,31.1 C34.7,31.5 34.4,31.4 34.5,31.2 L34.5,31.2 Z M34.8,30.7 C34.8,30.8 34.7,30.8 34.6,30.8 L34.5,30.6 L34.8,30.7 L34.8,30.7 Z M34.9,30.8 C34.9,30.8 35.1,30.9 35.2,30.9 L34.9,31 L34.9,30.8 L34.9,30.8 Z M33.9,31.8 C33.8,31.7 33.9,31.7 33.9,31.8 L33.9,31.8 Z M38.9,31.4 C38.9,30.5 35.9,31.6 35.9,30.9 C35.9,30.7 36.2,30.7 36.6,30.7 C36.9,31.1 38.6,30.6 39.1,30.7 C38.5,30.2 38,30.7 37.4,30.6 C37.8,30.6 37.9,30.5 37.9,30.4 L36.7,30.5 C36.4,30.7 35.8,30.3 35.8,30.9 C35.8,31.6 37.5,31.2 38.1,31.2 C38.7,31.2 38.8,31.3 38.8,31.4 C38.8,31.8 35.6,31.4 35.2,31.5 C35.3,31.4 35.4,31.2 35.4,31 C35.6,30.9 35.6,30.8 35.4,30.7 C35.4,30.6 35.3,30.4 35.1,30.3 C34.9,30.2 34.7,30.3 34.8,30.3 L34.7,30.3 C34.5,30.1 34.5,30.3 34.5,30.5 C34.4,30.5 34.2,30.7 34.3,30.8 C34.2,31 34.1,31.2 34.3,31.2 L34.3,31.5 C34.2,31.5 34,31.4 34.1,31.4 L34,31.4 C33.3,30.8 33.6,31.1 33.6,30.5 C33.6,30.3 33.5,30.3 33.4,30.3 C33.5,30.4 33.5,30.4 33.4,30.5 L33.4,30.7 C33.4,30.6 33.3,30.4 33.2,30.5 C33.2,30.4 33.1,30.3 33,30.4 C32.9,30.5 33,30.6 33.1,30.6 C33.1,30.6 33.2,30.7 33.1,30.7 C32.8,30.6 32.8,30.9 32.9,31 L32.9,30.9 L33,30.9 C33,30.9 33.1,30.8 33.1,30.9 C33.1,30.9 33.2,30.9 33.1,31 C33,31.1 33,31.2 33.1,31.2 C33.1,31.4 32.8,31.4 32.8,31.2 C32.6,31.4 32.9,31.6 33.1,31.5 C33.1,31.5 33.1,31.6 33.2,31.6 C33.2,31.7 33.2,31.7 33.3,31.7 L33.6,31.9 C33.7,32 33.8,32.1 33.9,32 C33.9,32.1 34,32.3 34,32.3 L33.5,32.3 C33,32.5 33,32.3 33,32.1 L32.9,32 L32.8,32 C32.7,31.9 32.6,31.9 32.6,32 C32.6,32 32.7,32 32.7,32.1 L32.7,32.2 C32.6,32.4 33,32.4 32.9,32.4 L32.8,32.4 C32.7,32.3 32.7,32.2 32.6,32.3 L32.5,32.3 C32.4,32.3 32.3,32.4 32.3,32.5 C32.3,32.5 32.3,32.4 32.4,32.4 L32.4,32.5 C32.4,32.6 32.5,32.7 32.7,32.5 C32.6,32.6 32.5,32.7 32.6,32.7 C32.6,32.8 32.7,32.9 32.8,32.9 C32.8,32.9 32.7,32.8 32.7,32.7 L32.9,32.5 C32.9,32.6 32.9,32.7 33.1,32.7 C33.2,32.7 33.3,32.5 33.3,32.5 L33.4,32.5 L33.4,32.7 C33.4,32.7 33.6,32.6 33.6,32.5 L33.7,32.6 L34,32.6 L34,32.7 L34,32.6 C34,32.6 34,32.7 34.1,32.8 C34.1,32.5 34.3,32.6 34.5,32.5 C34.5,32.5 34.5,32.6 34.4,32.6 C34.8,32.7 34.9,32.1 35.2,32.2 C35.8,32.3 35.4,31.7 36.3,31.8 C36.4,31.8 36.5,31.7 36.5,31.7 C36.4,31.8 36.4,32.1 36.6,32.1 C36.7,32.1 36.8,32.1 36.8,32.2 C36.8,32.2 36.7,32.2 36.6,32.3 C36.4,32.5 36.4,31.9 36.1,32.1 C36,32.1 35.9,32.2 35.9,32.3 C36.1,32.1 36,32.3 36.1,32.3 C36.1,32.3 36.2,32.2 36.2,32.3 C36.2,32.4 35.9,32.3 36,32.5 C36,32.6 36.1,32.7 36.2,32.7 L36.2,32.6 C36.2,32.9 36.3,32.9 36.4,32.8 C36.4,32.8 36.3,32.8 36.3,32.7 L36.5,32.6 L36.7,32.7 C36.8,32.7 36.7,32.4 36.9,32.5 L37,32.5 C37,32.4 37,32.2 36.9,32.2 L36.8,32 C37.1,32.1 37.5,32.2 37.7,32 C37.9,31.9 38,32 38.1,32 C38.1,32 38.2,32 38.2,32.1 L38.2,32.4 C38.2,32.5 38,32.4 37.9,32.4 L37.8,32.4 C37.7,32.4 37.6,32.5 37.6,32.6 L37.7,32.5 C37.7,32.6 37.8,32.7 37.9,32.6 C37.8,32.6 37.7,32.8 37.8,32.8 L38,32.8 C38,32.9 38,32.9 38.1,32.9 L38.1,32.8 L38.2,32.8 L38.3,32.6 L38.3,32.8 L38.4,32.8 C38.4,32.9 38.5,32.9 38.6,32.9 C38.6,32.9 38.5,32.9 38.5,32.8 L38.5,32.7 C38.5,32.5 38.4,32.5 38.4,32.5 C38.4,32.4 38.6,32.5 38.6,32.3 C38.6,32.3 38.6,32.2 38.5,32.2 C38.5,32.2 38.6,32.2 38.6,32.1 C38.5,32.1 38.5,32 38.5,31.9 C38.5,31.9 38.6,31.8 38.6,31.7 C38.6,31.8 38.4,31.8 38.4,31.7 C38.4,31.7 38.4,31.6 38.3,31.6 C38.1,31.6 37.9,31.6 37.5,31.5 C38.4,31.7 38.9,31.6 38.9,31.4 L38.9,31.4 Z M33.7,34.1 L33.8,33.9 C33.8,33.9 33.9,33.9 33.8,33.8 C33.8,33.8 33.6,33.9 33.8,33.7 C33.9,33.6 34.3,33.9 34.1,33.9 C34.1,33.9 34.1,33.8 34,33.8 L34,33.9 C33.8,33.8 33.9,34 33.9,34.1 L33.7,34.1 L33.7,34.1 Z M34,33.6 C34,33.7 33.9,33.7 33.8,33.6 L33.7,33.4 C33.8,33.6 33.9,33.6 34,33.6 L34,33.6 Z M34.1,33.6 C34.1,33.6 34.3,33.7 34.4,33.7 C34.2,33.8 34.1,33.9 34.1,33.6 L34.1,33.6 Z M38.6,34.2 C38.6,33.3 35.2,34.5 35.2,33.7 C35.2,33.5 35.9,33.6 36.3,33.6 C36.5,34 38.2,33.4 38.7,33.6 C38.2,33.2 37.7,33.6 37.1,33.5 C37.5,33.5 37.9,33.4 37.9,33.3 C37.6,33.5 36.9,33.2 36.5,33.4 C36.1,33.6 35.2,33.2 35.2,33.7 C35.2,34.4 37.4,34 38,34 C38.6,34 38.6,34.1 38.6,34.2 C38.5,34.4 38,34.4 37.7,34.4 C37.2,34.4 35.1,34.1 34.4,34.4 C34.5,34.1 34.9,33.7 34.5,33.7 L34.4,33.5 C33.9,33.1 34.2,33.4 33.9,33.3 L33.8,33.3 L33.7,33.2 L33.7,33.4 C33.6,33.4 33.5,33.6 33.5,33.6 C33.6,33.9 33.4,33.9 33.5,34 L33.5,34.2 L33.4,34.2 C33,34.2 32.7,33.8 32.7,33.6 C32.7,33.4 32.8,33.4 32.7,33.2 C32.7,33.1 32.6,33.1 32.5,33.1 C32.5,33.1 32.6,33.1 32.6,33.2 C32.5,33.3 32.5,33.3 32.6,33.4 L32.6,33.5 C32.6,33.6 32.6,33.3 32.4,33.3 C32.4,33.2 32.3,33.2 32.2,33.3 L32.3,33.3 C32.3,33.4 32.3,33.5 32.4,33.5 L32.4,33.6 C32.2,33.5 32.2,33.6 32.2,33.7 C32.1,33.7 32.1,33.8 32.2,33.9 L32.2,33.8 L32.4,33.8 C32.3,33.9 32.3,34 32.4,34 C32.4,34.2 32.1,34.1 32.2,34 C32.1,34.2 32.3,34.4 32.5,34.3 C32.5,34.3 32.5,34.4 32.6,34.4 C32.6,34.4 32.7,34.3 32.7,34.4 C32.7,34.5 32.7,34.5 32.8,34.5 L32.8,34.4 C32.8,34.4 33,34.7 33.2,34.8 C33.3,34.8 33.3,34.8 33.4,34.7 C33.4,34.7 33.6,35 33.5,35 L33,35 C32.9,35.1 32.6,35.2 32.5,35 C32.4,34.9 32.5,34.8 32.3,34.8 C31.9,34.7 32.1,34.8 32.1,34.9 L32.1,35 C32,35.2 32.4,35.2 32.3,35.2 C32,35.2 32,35 31.9,35 L31.8,35 C31.7,35 31.6,35.1 31.6,35.2 C31.6,35.2 31.6,35.1 31.7,35.1 C31.8,35.2 31.7,35.4 32,35.2 C32.1,35.1 31.8,35.4 31.9,35.4 L31.9,35.5 C31.9,35.6 32,35.7 32.1,35.7 C32.1,35.7 32,35.6 32,35.5 C32.2,35.6 32.1,35.4 32.2,35.3 C32.2,35.6 32.6,35.4 32.5,35.3 L32.6,35.3 L32.6,35.5 L32.8,35.4 L33.1,35.4 C33.1,35.6 33.1,35.5 33.2,35.5 C33.2,35.5 33.2,35.6 33.3,35.7 C33.3,35.4 33.7,35.6 33.9,35.4 C34,35.4 33.9,35.5 33.8,35.5 C33.9,35.5 34,35.5 34,35.4 L34.3,35.3 C34.3,35.2 34.3,35.2 34.4,35.2 C34.3,35.3 34.6,35.1 34.6,35.1 C35.6,35.2 35.1,34.6 36.2,34.8 C36.3,34.8 36.3,34.8 36.3,34.7 C36.2,34.8 36.2,35 36.4,35 C36.6,35 36.6,35.1 36.6,35.1 L36.4,35.1 L36,34.9 C35.9,34.9 35.7,35 35.8,35.1 C35.9,34.9 35.9,35.1 35.9,35.1 C35.9,35.2 36,35.1 36.1,35.1 C36.1,35.2 35.8,35.1 35.9,35.3 C35.9,35.4 36,35.5 36.1,35.5 C36.1,35.5 36,35.5 36,35.4 L36.1,35.4 L36.1,35.5 C36.1,35.7 36.2,35.7 36.3,35.7 C36.1,35.7 36.2,35.6 36.2,35.6 L36.2,35.5 L36.3,35.5 C36.3,35.6 36.4,35.6 36.5,35.6 L36.6,35.4 C36.7,35.4 36.9,35.5 37,35.4 C37,35.3 37,35.2 36.9,35.1 L36.8,34.9 C37.1,35 37.4,35.1 37.7,34.9 C37.8,34.8 38.1,34.8 38.1,34.9 C38,35.2 38.2,35.2 37.8,35.1 C37.7,35.1 37.5,35.2 37.5,35.3 L37.6,35.2 C37.6,35.3 37.7,35.4 37.8,35.3 C37.9,35.2 37.6,35.5 37.7,35.5 L37.9,35.7 L37.9,35.6 L38.1,35.4 C38.2,35.3 38,35.6 38.1,35.6 C38.2,35.6 38.2,35.8 38.3,35.7 C38.3,35.7 38.2,35.7 38.2,35.6 L38.2,35.5 C38.2,35.3 38.1,35.3 38.1,35.3 C38.1,35.2 38.3,35.3 38.3,35.1 C38.3,35 38.2,35 38.2,35 C38.5,35 38.1,34.8 38.2,34.8 C38.2,34.8 38.3,34.7 38.3,34.6 C38.3,34.7 38.1,34.7 38.1,34.6 C38.1,34.6 38.1,34.5 38,34.5 C37.8,34.5 37.7,34.5 37.3,34.4 C38.1,34.5 38.6,34.4 38.6,34.2 L38.6,34.2 Z M42.5,37.7 L42.5,38 L42.5,37.7 Z M42.6,38 C42.7,37.9 42.7,37.9 42.8,37.9 C42.8,37.9 42.8,37.8 42.7,37.8 C42.7,37.8 42.8,37.8 42.7,37.7 L42.6,37.7 L42.6,37.6 L42.7,37.6 L42.9,37.7 L42.9,37.9 C42.9,37.9 42.9,37.8 42.8,37.8 L42.8,37.9 L42.6,38 L42.6,38.2 L42.6,38 L42.6,38 Z M42.9,37.4 C42.9,37.5 42.8,37.5 42.7,37.5 L42.6,37.3 C42.7,37.3 42.9,37.4 42.9,37.4 L42.9,37.4 Z M43,37.5 C43,37.5 43.2,37.6 43.3,37.6 L43.1,37.7 C43.1,37.7 43,37.6 43,37.5 L43,37.5 Z M47.6,38.7 C47.6,38.7 47.7,38.6 47.7,38.5 C47.7,38.6 47.5,38.6 47.5,38.5 C47.5,38.5 47.5,38.4 47.4,38.4 C47.2,38.4 47,38.4 46.6,38.3 C48.1,38.2 47.7,37.6 46.8,37.6 C46.1,37.6 44.2,37.8 44.2,37.5 C44.2,37.3 44.9,37.4 45.3,37.4 L45.4,37.5 C46.2,37.7 47.1,37.1 47.6,37.3 C46.9,37.1 46.6,37.5 46,37.3 C46.4,37.3 46.8,37.2 46.8,37.1 C46.5,37.3 45.8,37 45.4,37.2 L45.3,37.2 C44.7,37.2 44,37.1 44,37.5 C44,38.2 46.2,37.8 46.7,37.8 C47.3,37.8 47.4,37.9 47.4,38 C47.4,38.2 46.9,38.2 46.5,38.2 C46,38.2 43.9,37.9 43.2,38.2 C43.2,38.1 43.5,37.8 43.4,37.7 C43.5,37.7 43.5,37.6 43.5,37.5 C43.5,37.5 43.4,37.4 43.3,37.4 L43.3,37.2 C43.3,37.2 43.2,37.1 43.1,37.1 C43,37.1 42.9,37.1 42.9,37 L42.8,37 C42.8,37 42.7,37 42.7,37.1 C42.7,37.1 42.6,37 42.5,37 L42.5,37.2 C42.4,37.2 42.3,37.4 42.3,37.4 C42.3,37.5 42.4,37.5 42.4,37.5 C42.3,37.6 42.3,37.8 42.2,37.8 C42.2,37.9 42.3,37.9 42.3,37.9 L42.3,38.1 L42,38.1 L41.6,37.8 C41.4,37.6 41.6,37.5 41.6,37.2 C41.6,37 41.5,37 41.4,37 C41.4,37 41.5,37 41.5,37.1 C41.5,37.1 41.5,37.2 41.4,37.2 L41.4,37.4 C41.3,37.2 41.3,37.2 41.2,37.2 C41.2,37.1 41.1,37 41,37.1 L41.1,37.1 L41.1,37.2 C41.1,37.3 41.3,37.3 41.3,37.3 C41.1,37.2 41.1,37.3 41.1,37.4 C41,37.4 41,37.5 41.1,37.6 L41.1,37.5 L41.3,37.5 C41.3,37.5 41.4,37.5 41.3,37.6 C41.2,37.7 41.2,37.8 41.3,37.8 C41.3,38 41,37.9 41.1,37.8 C41,38 41.2,38.2 41.4,38.1 C41.4,38.1 41.4,38.2 41.5,38.2 C41.5,38.2 41.5,38.3 41.6,38.3 L41.6,38.2 C41.6,38.2 41.8,38.5 42,38.6 C42,38.6 42.1,38.5 42.2,38.5 C42.2,38.6 42.2,38.6 42.3,38.6 C42.3,38.7 42.4,38.9 42.4,38.9 L42,38.9 C41.9,39 41.6,39.1 41.5,39 C41.5,38.9 41.5,38.9 41.4,38.8 L41.3,38.7 L41.2,38.7 C41.2,38.7 41,38.6 41,38.7 C41,38.7 41.1,38.7 41.1,38.8 L41.1,38.9 C41.1,38.9 41.1,39 41.3,39.1 L41.2,39.1 C41.1,39 41.1,39 41,39 L40.9,39 C40.8,39 40.7,39.1 40.7,39.2 C40.7,39.2 40.7,39.1 40.8,39.1 L40.8,39.2 C40.8,39.3 40.9,39.4 41.1,39.2 L41,39.3 C41,39.4 41.1,39.5 41.2,39.5 C41.2,39.5 41.1,39.4 41.1,39.3 L41.2,39.3 C41.3,39.3 41.3,39.1 41.3,39.1 C41.3,39.1 41.3,39.3 41.4,39.2 C41.5,39.2 41.6,39.1 41.5,39 L41.6,39.1 C41.6,39.1 41.7,39.1 41.7,39 L41.7,39.2 C41.7,39.2 41.9,39.1 41.9,39 L41.9,39.1 L42.1,39.1 L42.1,39.2 L42.1,39.1 C42.1,39.1 42.1,39.2 42.2,39.3 C42.2,39 42.4,39.1 42.6,39 C42.6,39 42.6,39.1 42.5,39.1 C42.6,39.2 42.8,39 42.8,38.9 C42.8,38.9 42.9,38.9 43,38.8 C43.2,38.8 43.2,38.7 43.2,38.7 C44.2,38.8 43.7,38.2 44.8,38.4 C44.9,38.4 44.9,38.3 44.9,38.3 C44.8,38.4 44.8,38.7 45,38.7 C45.1,38.7 45.2,38.7 45.2,38.8 L45,38.8 L44.6,38.6 L44.5,38.6 C44.4,38.6 44.3,38.7 44.3,38.8 L44.4,38.7 C44.4,38.7 44.4,38.8 44.5,38.8 L44.6,38.8 C44.6,38.9 44.3,38.8 44.4,39 L44.4,39.1 C44.4,39.2 44.4,39.2 44.6,39.2 C44.6,39.2 44.5,39.2 44.5,39.1 L44.5,39.2 C44.5,39.3 44.6,39.4 44.7,39.3 C44.7,39.3 44.6,39.3 44.6,39.2 L44.7,39.2 L44.7,39.1 L44.8,39.1 C44.8,39.1 44.9,39.2 45,39.2 L45.1,39 L45.5,39 C45.5,38.9 45.5,38.8 45.4,38.7 L45.3,38.5 C45.4,38.6 45.5,38.6 45.7,38.6 C46,38.6 46.1,38.6 46.2,38.5 C46.4,38.4 46.5,38.5 46.6,38.5 C46.6,38.5 46.7,38.5 46.6,38.6 L46.6,38.8 C46.6,38.9 46.4,38.8 46.4,38.8 L46.3,38.8 C46,38.9 46,39 46,39.1 L46,39 C46,39.1 46.1,39.1 46.2,39.1 C46.1,39.1 46,39.2 46.1,39.3 C46.1,39.4 46.1,39.4 46.2,39.4 L46.2,39.3 L46.3,39.3 L46.4,39.1 C46.4,39.2 46.3,39.3 46.4,39.3 C46.5,39.4 46.5,39.4 46.6,39.4 C46.6,39.4 46.5,39.4 46.5,39.3 L46.6,39.2 C46.7,39 46.5,39 46.5,39 C46.5,38.9 46.7,39 46.7,38.8 C46.7,38.7 46.6,38.7 46.6,38.7 L46.7,38.7 C47.5,38.9 47.6,38.8 47.6,38.7 L47.6,38.7 Z M43,40.8 C42.9,40.8 42.9,40.7 42.9,40.6 L43,40.8 C43.1,40.7 43.1,40.8 43,40.8 L43,40.8 Z M42.9,40.9 C42.8,40.8 42.8,40.9 42.9,40.9 L42.7,40.9 L42.7,41.1 L42.6,41.2 C42.5,41.2 42.5,41.1 42.6,41 C42.6,41 42.6,40.9 42.7,40.9 L42.9,40.9 C42.8,40.8 42.8,40.8 42.7,40.8 C42.7,40.8 42.8,40.8 42.7,40.7 L42.6,40.7 L42.6,40.6 L42.7,40.6 L42.9,40.7 L42.9,40.9 L42.9,40.9 Z M42.8,40.5 C42.8,40.6 42.7,40.6 42.6,40.5 C42.6,40.4 42.6,40.4 42.5,40.3 C42.6,40.5 42.8,40.5 42.8,40.5 L42.8,40.5 Z M44.7,40.6 C45.6,40.9 46.4,40.3 46.9,40.5 L45.4,40.5 C45.8,40.5 46.1,40.4 46.2,40.3 L44.9,40.4 C44.5,40.4 44.1,40.4 44.1,40.7 C44.1,41.3 45.7,41 46.2,41 C46.7,41 46.7,41.1 46.7,41.2 C46.7,41.3 46.1,41.4 45.8,41.4 C45.3,41.4 44.1,41.2 43.2,41.3 C43.3,41.2 43.4,41 43.3,40.9 C43.4,40.9 43.4,40.8 43.4,40.7 C43.4,40.7 43.3,40.6 43.2,40.6 L43.2,40.4 C43.2,40.4 43.1,40.3 43,40.3 C42.9,40.3 42.9,40.3 42.8,40.2 L42.6,40.2 L42.5,40.1 L42.5,40.3 L42.3,40.5 C42.3,40.6 42.3,40.6 42.4,40.6 L42.2,40.9 C42.2,40.9 42.2,41 42.3,41 L42.3,41.2 L42.2,41.2 C42.1,41.2 42,41.2 41.9,41.1 C41.8,41 41.8,41 41.8,40.8 C41.8,40.7 41.9,40.6 41.8,40.5 L41.8,40.4 C41.8,40.3 41.7,40.3 41.6,40.3 C41.6,40.3 41.7,40.3 41.7,40.4 L41.7,40.6 C41.7,40.5 41.6,40.4 41.6,40.4 C41.6,40.3 41.5,40.3 41.4,40.3 L41.5,40.3 L41.5,40.4 C41.5,40.5 41.6,40.5 41.6,40.5 C41.5,40.4 41.4,40.5 41.4,40.6 L41.4,40.7 C41.3,40.7 41.3,40.8 41.4,40.9 L41.4,40.8 L41.5,40.8 C41.4,40.9 41.4,41 41.5,41 C41.5,41.2 41.3,41.1 41.3,41 C41.2,41.2 41.4,41.4 41.6,41.3 C41.6,41.3 41.6,41.4 41.7,41.4 C41.7,41.4 41.7,41.5 41.8,41.5 L41.8,41.4 C41.8,41.4 41.8,41.3 42,41.4 C42,41.4 42,41.5 42.1,41.5 L42.3,41.5 L42.3,41.8 L42,41.8 C41.9,41.9 41.6,42 41.5,41.8 C41.5,41.8 41.5,41.7 41.4,41.7 L41.3,41.6 L41.2,41.6 C41.2,41.5 41,41.5 41,41.6 C41,41.6 41.1,41.6 41.1,41.7 L41.1,41.8 C41.1,41.8 41.1,41.9 41.3,42 L41.2,42 C41.1,41.9 41.1,41.9 41,41.9 L40.9,41.9 C40.8,41.9 40.7,42 40.8,42.1 C40.8,42.1 40.8,42 40.9,42 C40.9,42.1 41,42.2 41.1,42 L41,42.2 C41,42.3 41.1,42.4 41.2,42.4 C41.2,42.4 41.1,42.3 41.1,42.2 L41.2,42.2 L41.3,42 C41.3,42 41.3,42.1 41.4,42.1 C41.5,42.1 41.6,42 41.5,41.9 L41.6,42 C41.6,42 41.7,42 41.7,41.9 L41.7,42.1 C41.7,42.1 41.9,42 41.9,41.9 L41.9,42 L42.1,42 L42.1,42.1 L42.1,42 C42.1,42 42.1,42.1 42.2,42.2 C42.2,41.9 42.4,42 42.6,41.9 C42.6,41.9 42.6,42 42.5,42 C42.7,42.1 42.9,41.9 42.9,41.7 L42.9,41.6 L42.9,41.7 C43.1,41.7 43.1,41.6 43.1,41.6 C43.6,41.6 43.2,41.1 44,41.3 C44.1,41.3 44.2,41.3 44.2,41.2 C44.1,41.3 44.1,41.6 44.3,41.6 C44.4,41.6 44.5,41.6 44.5,41.7 L44.3,41.7 L43.9,41.5 L43.8,41.5 C43.7,41.5 43.6,41.6 43.6,41.7 L43.7,41.6 C43.7,41.6 43.7,41.7 43.8,41.7 L43.9,41.7 C43.9,41.8 43.7,41.7 43.7,41.9 L43.7,42 C43.7,42.1 43.7,42.1 43.9,42.1 C43.9,42.1 43.8,42.1 43.8,42 L43.8,42.1 C43.8,42.2 43.9,42.3 44,42.2 C44,42.2 43.9,42.2 43.9,42.1 L44,42.1 L44,42 C44,42.1 44.1,42.1 44.2,42.1 L44.3,41.9 L44.7,41.9 C44.7,41.8 44.7,41.7 44.6,41.6 L44.5,41.4 C44.6,41.5 44.7,41.5 44.9,41.5 C45.2,41.5 45.3,41.5 45.5,41.4 L45.9,41.4 C45.9,41.4 46,41.4 45.9,41.5 L45.8,41.7 C45.8,41.8 45.6,41.7 45.6,41.7 L45.5,41.7 C45.4,41.7 45.3,41.8 45.3,41.9 L45.4,41.8 C45.4,41.9 45.5,41.9 45.6,41.9 C45.5,41.9 45.4,42 45.5,42.1 L45.6,42.3 L45.6,42.2 L45.7,42.2 C45.8,42.2 45.8,42.1 45.8,42 C45.7,42.2 45.8,42.2 45.8,42.2 C45.8,42.3 45.9,42.3 46,42.3 C46,42.3 45.9,42.3 45.9,42.2 L46,42.1 C46.1,41.9 46,41.9 46,41.9 C46,41.8 46.2,41.9 46.2,41.7 L46.2,41.6 C46.2,41.6 46.3,41.6 46.3,41.5 C46.2,41.5 46.2,41.4 46.2,41.4 C46.2,41.4 46.3,41.3 46.3,41.2 C46.3,41.3 46.1,41.3 46.1,41.2 C46.1,41.2 46.1,41.1 46,41.1 C45.8,41.1 45.5,41.1 45.2,41 C45.6,41 46.2,40.9 46.2,40.7 C46.2,40.5 46.2,40.4 45.5,40.4 C44.9,40.4 43.6,40.6 43.6,40.3 C44.2,40.6 44.4,40.6 44.7,40.6 L44.7,40.6 Z M42.3,43.8 C42.4,43.7 42.4,43.6 42.3,43.6 C42.3,43.6 42.4,43.6 42.3,43.5 L42.2,43.5 L42.2,43.4 L42.3,43.4 L42.5,43.5 L42.5,43.8 L42.5,43.7 L42.3,43.8 L42.3,44 L42.3,43.8 L42.3,43.8 Z M42.5,43.3 C42.5,43.3 42.4,43.4 42.3,43.3 C42.3,43.3 42.3,43.2 42.2,43.1 C42.4,43.2 42.5,43.3 42.5,43.3 L42.5,43.3 Z M42.7,43.4 L42.9,43.5 C42.8,43.5 42.8,43.6 42.8,43.6 C42.7,43.5 42.6,43.4 42.7,43.4 L42.7,43.4 Z M44.2,43.3 C45.1,43.6 45.9,43 46.4,43.2 L44.9,43.2 C45.3,43.2 45.6,43.1 45.7,43 L44.4,43.1 L44.2,43.3 C44,43.3 43.7,43.4 43.7,43.6 C43.7,44.1 45.7,43.7 45.7,43.9 C45.7,44.4 43.3,44 42.9,44.1 C43,43.9 43.2,43.7 43.1,43.6 C43.2,43.6 43.2,43.5 43.2,43.5 L43,43.4 L43,43.2 C43,43.2 42.9,43.1 42.8,43.1 C42.7,43.1 42.7,43.1 42.6,43 L42.4,43 L42.3,42.9 L42.3,43.1 L42.1,43.3 C42.1,43.4 42.1,43.4 42.2,43.4 C42.1,43.5 42.1,43.6 42,43.6 L42.1,43.7 C42.1,43.9 42,44.1 42.1,44.2 L41.7,43.7 C41.6,43.6 41.6,43.6 41.6,43.5 L41.6,43.1 C41.6,43 41.5,43 41.4,43 C41.4,43 41.5,43 41.5,43.1 L41.5,43.3 C41.5,43.2 41.4,43.1 41.4,43.1 C41.4,43 41.3,43 41.2,43.1 L41.3,43.1 L41.3,43.2 C41.3,43.3 41.4,43.3 41.4,43.3 C41.3,43.2 41.2,43.3 41.2,43.4 L41.2,43.5 C41.2,43.5 41.1,43.6 41.2,43.7 L41.2,43.6 L41.3,43.6 C41.2,43.7 41.2,43.8 41.3,43.8 C41.3,44 41.1,43.9 41.1,43.8 C41,44 41.2,44.1 41.4,44 C41.4,44 41.4,44.1 41.5,44.1 C41.5,44.1 41.5,44.2 41.6,44.2 L41.6,44.1 C41.6,44.1 41.6,44.4 41.8,44.5 C41.8,44.6 42,44.7 42.1,44.7 C42.1,44.8 42.2,44.9 42.2,44.9 L41.8,44.9 L41.5,45 L41.3,45 C41.3,45 41.3,44.9 41.2,44.9 L41.1,44.8 L41,44.8 C41,44.8 40.9,44.7 40.8,44.8 C40.8,44.8 40.9,44.8 40.9,44.9 L40.9,45 C40.9,45 40.9,45.1 41.1,45.2 L41,45.2 C41,45 41,45 40.9,45 L40.8,45 C40.7,45 40.6,45.1 40.7,45.2 C40.7,45.2 40.7,45.1 40.8,45.1 L40.8,45.2 C40.8,45.3 40.9,45.4 41,45.2 C41,45.3 40.8,45.3 40.9,45.4 C40.9,45.5 41,45.6 41.1,45.6 C41.1,45.6 41,45.5 41,45.4 L41.1,45.4 L41.2,45.2 C41.2,45.2 41.2,45.3 41.3,45.3 L41.4,45.2 L41.5,45.3 C41.5,45.3 41.6,45.3 41.6,45.2 L41.6,45.4 L41.8,45.2 L41.8,45.3 L42,45.3 L42,45.4 L42,45.3 C42,45.3 42,45.4 42.1,45.5 C42.1,45.2 42.3,45.3 42.4,45.2 C42.4,45.2 42.4,45.3 42.3,45.3 C42.4,45.3 42.5,45.2 42.5,45.1 C42.5,45.1 42.6,45 42.7,44.6 L42.8,44.6 L43.3,44.4 C43.2,44.5 43.2,44.6 43.2,44.7 L43.4,45 L43.2,45 L42.8,44.8 L42.7,44.8 C42.6,44.8 42.5,44.9 42.5,45 L42.6,44.9 C42.6,44.9 42.6,45 42.7,45 L42.8,45 C42.8,45.1 42.6,45 42.6,45.2 L42.6,45.3 C42.6,45.4 42.6,45.4 42.7,45.4 C42.7,45.4 42.6,45.4 42.7,45.3 L42.7,45.4 C42.7,45.5 42.8,45.5 42.9,45.5 L42.8,45.5 L42.9,45.5 L42.9,45.4 L43,45.5 L43.1,45.3 L43.4,45.3 C43.4,45.3 43.4,45.1 43.3,45 C43.2,45 43.4,44.6 43.1,44.4 C43.2,44.4 43.7,44.5 43.8,44.4 C43.9,44.4 44.1,44.5 44.1,44.6 L44.1,44.7 C44,44.8 44,44.8 43.9,44.8 L43.8,44.7 L43.7,44.7 C43.6,44.7 43.5,44.7 43.5,44.8 L43.6,44.8 L43.6,44.9 C43.5,44.9 43.4,44.9 43.4,45 L43.4,45.1 C43.4,45.1 43.3,45.2 43.4,45.3 L43.5,45.2 C43.5,45.2 43.6,45.1 43.7,45.2 C43.6,45.2 43.6,45.3 43.6,45.3 C43.6,45.3 43.6,45.4 43.7,45.5 L43.7,45.4 L43.8,45.4 C43.9,45.3 43.9,45.2 43.9,45.2 C43.9,45.2 44,45.3 44.1,45.2 L44.1,45.1 C44.1,45.1 44.2,45.2 44.2,45.1 C44.1,45 44.2,45 44.2,44.9 C44.2,44.9 44.3,44.9 44.4,44.8 C44.3,44.8 44.2,44.7 44.3,44.7 C44.4,44.7 44.5,44.6 44.4,44.5 C44.3,44.4 44,44.4 44,44.3 C44.4,44.3 45.2,44.3 45.2,43.9 C45.2,43.4 43.2,43.9 43.2,43.6 C43.9,43.4 44,43.3 44.2,43.3 L44.2,43.3 Z M12.2,8.9 C12.2,8.2 11.3,8.2 11.3,8.9 C11.3,9.6 12.2,9.5 12.2,8.9 L12.2,8.9 Z M12,7.6 C12,7 11,7 11,7.6 C11,8.2 12,8.3 12,7.6 L12,7.6 Z M12.3,7.1 C13,7.1 13,6.2 12.3,6.2 C11.6,6.2 11.6,7.1 12.3,7.1 L12.3,7.1 Z M13.5,7 C13.8,7 14,6.8 14,6.5 C14,5.8 13.1,5.8 13.1,6.5 C13,6.8 13.3,7 13.5,7 L13.5,7 Z M19,6.1 C19.5,6.6 20.1,5.9 19.7,5.4 C19.3,4.9 18.5,5.7 19,6.1 L19,6.1 Z M18.9,5.1 C19.4,4.6 18.7,4 18.2,4.4 C17.7,4.8 18.4,5.6 18.9,5.1 L18.9,5.1 Z M17.6,4.9 C18.1,4.4 17.4,3.8 16.9,4.2 C16.4,4.6 17.1,5.4 17.6,4.9 L17.6,4.9 Z M16.5,5.7 C16.7,5.5 16.7,5.2 16.5,5 C16,4.5 15.4,5.2 15.8,5.7 C16.1,5.8 16.3,5.8 16.5,5.7 L16.5,5.7 Z M13.5,5 L13.9,5.9 L14.4,5.3 C14.5,5.4 14.5,6.2 14.5,6.3 C14.5,6.7 14.8,6.9 15.1,6.9 C15.8,6.9 16,6 15.4,5.8 C15.3,5.7 14.7,5.2 14.7,5.1 L15.6,5.2 L15.3,4.3 L14.7,4.8 L14.7,3.9 L13.8,4.2 L14.4,4.9 L14.4,5 L13.5,5 L13.5,5 Z M19,6.5 C19.5,7.3 19.3,7.4 18.8,6.7 L18.9,7.8 C19.7,6.7 19.2,8.4 18.7,8.5 C17.8,8.7 18,7.3 18.6,7.9 C18.7,7.2 18.1,7.2 17.8,7.5 C18.1,6.8 18,6.5 17.4,6.1 C17,6.7 17.2,7.1 17.7,7.5 C17.2,7.3 16.8,7.7 17.2,8.2 C17.3,7.7 17.7,7.8 17.8,8.2 C18,8.9 16.6,9.6 16,8.4 C16.2,8.3 16.5,8.3 16.9,8.6 L16.6,7.6 C16.3,8.3 15.7,8.7 16.1,7.3 L14.8,7.9 C16.1,8.6 15.4,8.7 14.7,8.4 L15.3,9.4 C15.4,8.9 15.7,8.6 15.8,8.6 C16.3,9.8 14.8,10.3 14.4,9.6 C14.2,9.3 14.4,8.9 14.8,9.2 C14.7,8.5 14.2,8.5 14,9 C14,8.3 13.8,8 13.1,7.8 C12.9,8.5 13.2,8.8 13.8,9.1 C13.4,9.1 13,9.4 13.5,9.9 C13.5,9 14.5,9.9 13.9,10.4 C13.5,10.7 12,9.7 13.3,10 L12.6,9.1 C12.7,9.9 12.5,10 12.3,9.1 L11.7,9.6 C12.2,9.9 12.8,10.4 13.5,11.4 C15,10.5 17.7,9.3 19.6,8.9 C19.4,7.8 19.5,7 19.7,6.4 C19.8,6.5 19,6.5 19,6.5 L19,6.5 Z M20.5,12.9 C19.8,13.5 19,12.9 18.5,12.2 C19.4,11.8 20.5,11.4 21.2,11 C20.6,12 21.1,12.4 20.5,12.9 L20.5,12.9 Z M20.3,19.8 C19,20.4 18,18.3 18.5,17.8 C18.9,17.4 19,17.1 18.8,16.7 C18.5,16.1 17.9,16.4 17.4,16.6 C17.7,16.1 17.7,15.7 17.3,15.7 C16.8,15.8 16.8,16.5 16.5,16.4 C16.2,16.3 16.4,15.9 16.4,15.6 C16.4,15 17.6,14.7 19.3,14.1 C19.6,14 19.9,13.9 20.1,14.1 C20.3,14.3 20.7,14.5 20.6,14.7 C20.5,15 19.9,14.4 19.6,14.7 C19.3,14.9 19.6,15.2 20.1,15.4 C19.5,15.7 19,16 19.2,16.4 C19.4,16.9 19.7,17 20.1,17 C20.4,17 20.6,17.4 20.9,17.9 C21.2,18.6 21.3,19.4 20.3,19.8 L20.3,19.8 Z M15.6,14.8 C14.9,14.9 14.9,14.2 13.8,13.9 C14.7,13.7 15.7,13.3 16.6,13 C16.8,13.7 16.4,14.7 15.6,14.8 L15.6,14.8 Z M29.5,37 C29.7,36.5 28.7,36 28.6,35.2 C28.2,32.3 28.1,33.8 23.2,27.8 C23.4,27.8 24,27.7 24.4,28.2 C27.3,30.9 24.3,29.4 29.5,24.2 C29,24.4 28.3,24.5 27.8,24.8 C27.8,23.9 27.8,23.3 27.2,22.7 C27.4,21.6 27.2,20.1 24.6,18.3 C25.9,18.6 26.8,19.8 27.7,18.9 C26.8,18.9 26.8,16.8 23.4,15.2 C24.6,15.2 25.7,17.2 27.2,16.1 C25.8,15.9 25.3,13.4 22.8,12.7 C23.7,12.8 24.6,13.3 25.3,12.2 C24.4,12.4 23.9,11.6 23,11.5 C23.4,10.5 23.3,9.8 22.9,8.9 C22.2,8.9 21.6,9.2 21.1,9.6 C21,9 20.4,8.9 19.9,9 C19.9,9.3 20.1,9.7 19.8,9.7 C18,10.1 15.6,10.9 13.8,12.2 C13.6,12.4 13.3,12 13.2,11.8 C12.8,12.2 12.4,12.6 12.7,13 C12,13.1 11.4,13.2 10.7,13.7 C10.7,14.5 11.4,15.1 12.2,15.6 C11,17 12.4,18.5 11,19.8 C12.9,19.9 12.6,17.2 13.6,16.9 C13.5,18.8 12.5,19.1 12.5,21.2 C12.5,22.2 13.2,23.5 12.6,24.1 C14.2,23.6 13.7,20.1 14.8,19.1 C15,19.7 14.9,20.3 14.7,20.9 C14.1,22.5 14.8,24.8 13.8,25.6 C15.4,25.4 15.6,22.8 17,21.8 C15.9,24.2 14.6,29.2 12.9,31.8 C10.1,35.6 8.4,40.2 5.9,40.2 C4.8,40.2 3.9,39.5 3.9,38.1 C3.9,33.8 11.2,30.9 11.2,26.3 C11.2,23.9 8.6,22.4 6.3,24.4 C2.8,23 3.7,28.9 1.3,28.9 C2.2,29.4 3.8,28.4 4.6,27.1 C4.2,30.1 -0.1,29.3 0.2,33 C0.8,30.2 10.6,29.5 7.2,25 C7.8,24.6 8.2,24.5 8.6,24.5 C9.5,24.5 10.2,25.2 10.2,26.3 C10.2,30.5 -1.77635684e-15,35.2 3.5,40.1 C3,40.3 2.5,40.2 2,39.7 C2,40.9 3.7,41.7 4.8,41 L5.6,41.2 C5.3,42.1 4.2,42.3 3.6,42.3 C5.4,43.7 8.5,41.8 8.3,40.3 C10.5,38.5 11.8,34.5 11.5,36.8 C10.5,38.7 9.5,40.4 9.2,42.9 C9,45 7.9,46.9 6.4,46.9 C6.1,46.9 5.5,46.5 5.3,46.7 C4.8,47.1 5.3,47.6 5.3,47.9 C5.3,48.5 4.2,49.1 4.2,50.9 C4.2,51.8 4.7,52.7 4.5,53.3 C5,53 5.6,52.3 5.8,51.2 C6.3,53.7 4.8,53.6 5.9,55.7 C6.1,54.4 8,54.6 7.1,55.8 C6.9,56 6.5,57.6 8,57.5 C7.7,57.3 7.7,56.9 8.5,56.7 C9.5,56.5 9.8,57 10.9,57 C11.6,57 11.8,56.1 12.3,56.1 C12.8,56.1 12.9,56.5 12.7,56.9 C13.6,56.7 13.7,56.2 13.7,55.8 C13.7,55.4 13.3,55 13.6,54.9 C13.9,54.7 14.9,54.9 14.5,55.8 C15.7,55.6 15.5,53.5 13.9,53.8 C13.8,53.4 13.2,53.2 12.7,53.2 C11.5,53.2 11.7,54.1 10.9,54.1 C9.6,54.1 8.3,52.4 8.3,49.5 C8.3,46.9 12.7,47.9 15.6,43.2 C16.5,41.6 16.6,39.8 16.5,37.7 C18.7,39 19,42.2 17.1,43.1 C16.6,43.3 16.5,43.2 16.4,43.5 C16.3,43.8 16.6,44 16.8,44.2 C17.4,44.5 17.3,45.1 17.5,45.7 C17.7,46.4 18.3,47.3 19.1,48 C19.2,47.6 19.2,47 19.1,46.2 C20.3,46.9 19.4,49.4 21.9,49.4 C21.4,49.1 21.5,48.5 21.8,48.4 C22.1,48.3 22.4,48.6 22.8,49.3 C23.3,50 23.2,49.9 24.3,49.9 C25.4,49.9 25,49.5 25.5,49.5 C26.2,49.5 26.1,50.3 25.8,50.7 C26.8,50.4 27.1,49.6 26.8,48.8 C27.7,48.3 28.2,49 28.3,49.5 C29.2,48.6 28.3,47.5 27.5,47.4 C27.6,46.6 26.5,46.6 25.7,46.6 L24.6,47.3 C23.1,47.3 19.9,44.5 19.9,43.3 C19.9,42.1 22.8,41.3 22.8,39.5 C22.8,37 20.4,36.2 18.3,34.7 C19.1,33.8 21.1,33.7 22.4,34.3 C22.5,33.6 23,33.8 23.2,32.6 C23.7,33.6 23.2,34.5 23.6,35 C24,34.5 24.8,34.5 24.7,33.3 C25,34.1 24.3,35.3 25,35.9 C25.1,34.9 26.2,34.9 26.2,35.7 C26.2,36.6 25,36.3 25,37.3 C25,37.8 25.6,38 25.6,38.2 C25.6,38.4 25.1,39 24.6,38.6 C25.2,39.9 26.6,39.5 27.1,38.4 C27.4,39.1 27.2,39.9 26.6,40 C27.2,40.3 28.4,40 28.2,38.4 C29,38.5 29.3,39 28.9,39.9 C29.5,39.7 30,39.4 30,38.9 C29.8,37.7 29.3,37.5 29.5,37 L29.5,37 Z M76.8,48.7 C76.8,46.7 79.8,46.7 79.8,48.7 C79.9,50.8 76.8,50.8 76.8,48.7 L76.8,48.7 Z M76.3,48.7 C76.3,49.8 77.2,50.8 78.4,50.8 C81.2,50.8 81.2,46.7 78.4,46.7 C77.2,46.7 76.3,47.6 76.3,48.7 L76.3,48.7 Z M69.5,52.5 C68.9,52.4 68.5,51.9 68.6,51.6 C68.6,51.4 68.8,51.2 68.9,51.1 C69.2,50.9 69.5,50.9 69.8,50.9 C71.2,51.2 70.9,52.7 69.5,52.5 L69.5,52.5 Z M68.6,50.6 C68.3,50.8 68.1,51.1 68.1,51.4 C68,51.8 68.1,52.2 68.4,52.4 C69.3,53.3 71.1,53.1 71.2,51.9 C71.5,50.7 69.8,49.9 68.6,50.6 L68.6,50.6 Z M57.2,22.9 C57.2,21.9 59,21.5 58.9,22.5 C58.7,23.5 57.2,23.8 57.2,22.9 L57.2,22.9 Z M57.2,21.7 C55.7,22.8 57,24.9 58.7,23.7 C60.2,22.4 58.8,20.5 57.2,21.7 Z M66.9,49.6 C65.9,49.6 65.9,47.4 66.9,47.4 C68.1,47.4 68,49.6 66.9,49.6 L66.9,49.6 Z M66.2,47.2 C65.3,48.1 65.7,50 67,50 C69.4,50.2 68.1,45.3 66.2,47.2 L66.2,47.2 Z M56.5,32.6 C55.5,32.1 55.7,31.1 56.2,31.1 C56.9,30.9 57.7,31.4 57.8,31.9 C57.8,32 57.9,32.2 57.8,32.4 C57.7,32.6 57.5,32.7 57.4,32.7 C57.2,32.8 56.8,32.7 56.5,32.6 L56.5,32.6 Z M56.1,30.5 C54.3,31.1 56.1,33.8 57.6,33.1 C59.3,32.5 58.1,30 56.1,30.5 L56.1,30.5 Z M71,39.9 C70.6,40.4 70.1,40.6 69.7,40.3 C68.8,39.6 70,37.9 70.9,38.6 C71.3,38.9 71.4,39.4 71,39.9 L71,39.9 Z M68.6,43.8 C67.7,44.9 66.4,44 67.3,42.9 C67.7,42.4 68.2,42.2 68.6,42.5 C68.9,42.8 68.9,43.3 68.6,43.8 L68.6,43.8 Z M60.3,22.7 L61.2,20 L62.1,20.4 C61.8,20.5 61.5,20.8 61.2,21.1 C61.4,21.2 61.8,21.2 62.1,21 L61.7,22 C61,20.8 60.6,22.1 61.7,22.7 C63.3,23.6 63,21.8 62.1,22.2 C62,21.3 63,21.2 63.1,22 C63.1,21.2 63.4,20.6 64.1,20.4 C64.4,21.2 64.2,21.7 63.5,22.3 C64.4,21.9 64.7,22.9 64,23.2 C63.8,22.3 62.2,23.1 63.7,24 C64.9,24.7 65.7,22.9 64.3,23.8 L65,22.7 C65,22.9 65.1,23.2 65.4,23.4 C65.5,23.1 65.6,22.6 65.4,22.3 L66.7,23.1 C65.9,23.2 65.4,24.1 66.5,23.7 L65.9,24.7 C65.9,24.3 65.8,24 65.6,23.8 C64.9,25 66.7,25.9 67.1,25.3 C67.3,25 67,24.4 66.4,24.6 C66.4,23.7 67.3,23.6 67.5,24.5 C67.7,23.7 68.1,23.3 68.8,23.1 C69,23.9 68.6,24.4 67.9,24.8 C68.8,24.5 69,25.5 68.3,25.8 C68.2,25.3 67.6,25.1 67.4,25.5 C67.1,26 68.5,27.2 69.4,26.4 C69.2,26.2 68.8,26.1 68.6,26.1 L69.3,25.3 C69.3,25.6 69.5,26 69.7,26.1 C69.8,25.7 69.9,25.3 69.8,25 L70.6,25.7 C70.6,25.7 69.4,27 68.7,27.8 C68.9,27.7 60.3,22.7 60.3,22.7 L60.3,22.7 Z M70.3,34.2 C70.3,32.6 73.1,34.3 72,35.3 C71.5,35.8 70.3,35.2 70.3,34.2 L70.3,34.2 Z M74,51.2 C74.2,50.3 75.5,49.9 75.9,50.5 C76.7,51.7 73.8,52.8 74,51.2 L74,51.2 Z M56.5,25.6 C56.5,27 55,26.7 55.3,25.6 C55.3,24.4 56.5,24.4 56.5,25.6 L56.5,25.6 Z M61.9,14.5 C62.2,13.9 61.9,13.1 62.9,13.1 C63.4,13.1 63.8,13.6 64.4,13.8 C63.5,13.8 62.6,14 61.9,14.5 L61.9,14.5 Z M77.7,28.4 C78.4,30.2 79.7,30.9 80.7,30.4 C78.4,30.1 80.2,26.2 77.4,26.2 C76.4,26.2 76.6,25.5 75,25.5 C73.8,25.5 71.6,26.7 71.6,29.2 C71.6,34.5 77.8,35 77.8,39.7 C77.8,41.1 76.8,42 75.6,42 C73.9,42 73.6,39.7 70.6,35.7 C71.6,36.4 72.8,35.8 72.8,34.8 C72.8,32.5 69.1,32.4 70,34.8 C66.6,30.4 67.1,30.2 68.7,28 L69,28.1 C69.3,27.8 70.9,26.2 71.1,25.8 L71.4,25.5 L70.6,25 L71.1,23.7 C71.3,24.6 71.8,25.1 72.3,24.9 C71.9,24 72.7,22.8 72.2,20.6 C72.7,21.5 73.4,21.8 74,21.7 C72.7,20.5 74.4,18.8 72.6,16.2 C73.2,16.4 73.5,16.3 73.8,16 C72.2,15.8 72.9,13.7 70.1,13 C70.8,12.9 71.2,12.4 71.1,12.1 C70.3,12.7 69.7,11.1 67.2,11.2 C67,10.3 66.2,9.3 65.2,8.8 C65.4,9.6 65.2,10.1 65,10.7 L56.9,2.8 C53.9,-2.66453526e-14 64.2,12.7 63.4,11.7 C62,12.2 61.2,12.2 61.2,13.1 C59.9,13.8 58.8,14.5 58.3,15 C57.8,15.4 57.5,15.5 57.9,16.3 C58.1,16.6 57.6,17.4 58.6,16.9 C61.3,15.3 61.7,16.3 59.8,17 C59.3,17.2 58.8,17.6 58.9,17.8 L59.4,18 C59.4,18.2 59.6,18.5 59.8,18.5 C60,18.5 60.3,18.1 60.5,18.2 C60.7,18.3 60.4,19.2 60.2,19.5 C61,19.4 61.5,18.6 61.5,18.1 C61.5,17.6 61.7,17.3 61.8,17.2 C61.9,17.1 62.1,17.9 61.9,18.2 C62.3,18.1 62.8,17.5 62.7,16.6 C63.7,15.7 63.6,17.1 64.8,17.1 C66.5,17.1 67.6,15.3 66.8,14.3 C67.3,14.7 67.5,15.3 67.5,15.8 C67.5,17.8 64.2,18.6 62.5,20.2 L60.9,19.5 C60.7,20.3 60.1,21.9 60,22.5 L59.9,22.8 L60,23 C59.1,24.2 58.3,25.7 58.1,27.2 C57.7,26.8 57.3,26.4 57,26.2 C57,26.1 57.1,25.9 57.1,25.7 C57.2,24.5 56.1,23.7 55.2,24.5 C55,24.7 55.1,24.7 54.9,24.5 C53.3,23.3 52.8,22.2 51.2,23.3 C50.1,24.3 50.1,23.7 51.2,25 C51.3,24.9 51.4,24.8 51.5,24.8 C52.4,23.9 52.9,25.6 55.3,28.2 C54.7,28.4 54.4,28.6 53,28.5 C52.5,28.5 52.4,28.3 52.1,28.9 C50.9,30.8 51.7,29.3 53.8,34.3 C54.5,36 56.2,35.6 57.6,37 L57.7,36.2 C57.3,35.8 55.5,35.4 56.5,35.4 C56.8,35.4 57.7,35.7 58.4,36 C58.2,35.2 57.5,34.5 57.1,34 C56.5,33.8 56,33.8 55.8,34 C55.8,34.6 55,34.4 55.2,34 C55.3,33.8 55.6,33.7 55.5,33.3 C55.4,32.9 54.9,32.8 54.6,32.8 C51.5,28.5 54,30.4 58.3,30.4 C58.9,36.1 63.6,33.5 65,37.2 C59.7,37.1 58.8,39.2 58.8,41.1 C58.8,43.3 60.7,43.2 60.7,44.9 C60.7,46.3 56.2,47 54.9,47.2 C53.8,47.4 53.1,47.6 52.5,48.1 C51.9,48.7 51.4,49.1 50.4,50.2 C50.4,50.2 50.8,50.3 51.3,50.3 L52.1,49.4 C52.3,49.1 52.5,48.8 52.7,48.8 C52.9,48.8 52.8,49.1 52.6,49.5 L51.9,50.5 C54.6,50.7 54.7,49.7 54.7,49.3 C54.7,48.9 54,48.6 54.4,48.4 C54.8,48.1 55.1,48.3 55.3,48.7 C55.6,49.1 55.7,49.4 56.4,49.1 C56.4,49.1 62.1,46.7 62.9,46.4 C63.6,46.1 63.4,45.8 63,45.5 C62.6,45.1 62.5,44.6 62.5,44 C62.5,42.3 63.5,41.7 65.3,41.8 C64.9,45.5 69.4,48 70.3,48 C70.8,48 71.4,47.6 71.5,49.2 C71.6,51.7 72.3,53.3 70.1,54.8 C69.2,55.4 68.5,57.2 68.1,57.6 C68.5,57.9 68.9,57.9 69.1,57 C69.4,56.2 69.7,55.8 70,55.6 C69.7,56.5 69.4,57.6 69.3,58 C70.3,58.2 72.1,57.2 72.1,56.5 C72.1,55.7 71.5,55.8 71.5,55.4 C71.5,54.7 72.7,54.8 72.8,55.4 C73.3,55.1 73.6,54.7 73.6,53.6 L74.5,53 C75.4,53.1 76.4,52.2 76.4,51.3 C76.4,49.7 73.8,49.8 73.4,51.4 C73.3,50 73.2,48.6 73.2,48 C73.3,47.1 73.3,46.8 73,46.7 C72.7,46.6 72.4,47.1 72.1,47.1 C71.8,47.1 70.5,46 70.5,44.8 C70.5,43.6 71.7,42.1 71.7,40.5 C71.7,40 72,39.7 72.2,40.2 C72.5,40.8 72.8,41.4 73.3,42.1 C72.9,44.1 75.2,46.1 77,44.6 C76.1,44.7 75.5,43.9 75.1,43.2 L75.9,43.2 C76.6,44 78.6,44 79,42 C78.6,42.4 78,42.8 77.4,42.7 C78.2,42.1 78.5,41.2 78.5,40.1 C78.5,35.1 72.3,34.4 72.3,29.9 C72.3,27.9 74.5,26.4 75.8,27.4 C75.4,27.8 75.2,28.4 75.2,29.2 C75.4,32.8 81.3,32.7 81.4,34.4 C82.4,31.2 77.9,32 77.7,28.4 L77.7,28.4 Z" id="Shape" fill="#000000"></path>
    </g>
</svg>