<svg xmlns="http://www.w3.org/2000/svg"><defs><font horiz-adv-x="1169"><font-face units-per-em="2048" ascent="1638" descent="-410"/><glyph horiz-adv-x="0"/><glyph horiz-adv-x="1044"/><glyph horiz-adv-x="532"/><glyph horiz-adv-x="532"/><glyph horiz-adv-x="532"/><glyph unicode="," horiz-adv-x="440" d="M295 238l12-21q-75-265-174-481h-65q77 275 110 502h117z"/><glyph unicode="." horiz-adv-x="487" d="M162 78q0 98 80 98 82 0 82-98t-82-98q-80 0-80 98z"/><glyph unicode="0" d="M1055 735q0-385-117.5-570t-355.5-185q-229 0-348 190.5t-119 564.5q0 382 115.5 566t351.5 184q231 0 352-190.5t121-559.5zm-832 0q0-340 89-502.5t270-162.5q189 0 275.5 168t86.5 497q0 324-86.5 492t-275.5 168-274-168-85-492z"/><glyph unicode="1" d="M682 0h-98v1065q0 145 12 301-15-15-31-29t-309-243l-57 71 397 297h86v-1462z"/><glyph unicode="2" d="M1028 0h-915v88l389 406q164 170 230 260t97 172 31 172q0 131-86 213t-223 82q-183 0-350-133l-54 69q183 154 406 154 191 0 300.5-102t109.5-281q0-145-73.5-280.5t-268.5-334.5l-375-385v-4h782v-96z"/><glyph unicode="3" d="M979 1118q0-136-85.5-229t-229.5-119v-6q176-22 268-112t92-242q0-205-139.5-317.5t-401.5-112.5q-223 0-389 83v99q84-44 188.5-69t196.5-25q221 0 332 89.5t111 252.5q0 145-113.5 223t-333.5 78h-158v96h160q182 0 288.5 86.5t106.5 234.5q0 122-86.5 195.5t-226.5 73.5q-109 0-199-30.5t-202-104.5l-49 67q85 71 205 112.5t243 41.5q202 0 312-95.5t110-269.5z"/><glyph unicode="4" d="M1141 373h-252v-373h-94v373h-752v67l725 1030h121v-1011h252v-86zm-346 86v418q0 302 14 507h-8q-20-37-123-188l-516-737h633z"/><glyph unicode="5" d="M537 879q234 0 368.5-113t134.5-311q0-225-140-350t-386-125q-109 0-207 21.5t-164 61.5v103q108-55 192-76.5t179-21.5q192 0 308 101.5t116 274.5q0 163-113 256t-307 93q-130 0-272-39l-60 39 58 669h704v-96h-610l-45-516q156 29 244 29z"/><glyph unicode="6" d="M131 623q0 285 77.5 479.5t220 288.5 343.5 94q94 0 172-23v-88q-73 27-176 27-247 0-384.5-178t-154.5-518h13q76 98 174 148t207 50q205 0 320.5-117t115.5-323q0-224-121.5-353.5t-327.5-129.5q-222 0-350.5 169.5t-128.5 473.5zm479-555q164 0 255 103t91 294q0 168-90 262t-245 94q-102 0-189.5-45t-139.5-119.5-52-152.5q0-111 49.5-213.5t134-162.5 186.5-60z"/><glyph unicode="7" d="M334 0l602 1366h-827v96h946v-73l-604-1389h-117z"/><glyph unicode="8" d="M582 1487q186 0 299.5-95t113.5-257q0-112-70.5-198t-228.5-159q192-79 270-173t78-228q0-181-126.5-289t-339.5-108q-221 0-339 101t-118 294q0 131 83 230t257 169q-161 76-227 160.5t-66 202.5q0 105 53 184.5t148.5 122.5 212.5 43zm-359-1127q0-138 93.5-214t261.5-76q164 0 264 80.5t100 218.5q0 124-78.5 201.5t-302.5 162.5q-184-71-261-157t-77-216zm357 1037q-141 0-226.5-69.5t-85.5-190.5q0-70 31.5-123.5t91-97 199.5-101.5q163 63 234 139t71 183q0 120-84.5 190t-230.5 70z"/><glyph unicode="9" d="M1036 842q0-288-75.5-482t-220-287-349.5-93q-104 0-192 26v86q43-14 103.5-21.5t92.5-7.5q247 0 387 178.5t156 520.5h-12q-73-96-174-147.5t-211-51.5q-203 0-316.5 112t-113.5 318q0 220 124.5 356t323.5 136q144 0 252-75.5t166.5-221.5 58.5-346zm-477 555q-158 0-252-106.5t-94-291.5q0-174 87-264t249-90q101 0 188.5 45t139 119.5 51.5 151.5q0 117-46.5 219t-130 159.5-192.5 57.5z"/><glyph unicode="£" d="M412 676v-256q0-116-35-196t-113-128h809v-96h-995v84q110 21 171.5 110t61.5 224v258h-211v82h211v297q0 204 98 315t281 111q175 0 330-68l-35-86q-157 66-295 66-141 0-209.5-81t-68.5-253v-301h411v-82h-411z"/><glyph unicode="◼" horiz-adv-x="1085" d="M0 1085h1085v-1085h-1085v1085z"/><glyph horiz-adv-x="745" d="M547 0h-98v1065q0 145 12 301-15-15-31-29t-309-243l-58 71 398 297h86v-1462z"/><glyph d="M1051 561q0-276-124-428.5t-347-152.5q-216 0-338.5 152.5t-122.5 428.5q0 277 124 427.5t343 150.5 342-151 123-427zm-828 0q0-239 91.5-365t269.5-126q362 0 362 491 0 243-92 365.5t-272 122.5q-177 0-268-122t-91-366z"/><glyph horiz-adv-x="717" d="M535 0h-99v721q0 132 13 301-39-37-79.5-70.5t-265.5-189.5l-53 72 402 284h82v-1118z"/><glyph horiz-adv-x="1018" d="M946 0h-895v88l393 299q153 115 216 178.5t90.5 121.5 27.5 130q0 108-78 170t-211 62q-188 0-350-134l-53 70q181 154 424 154 170 0 270.5-86.5t100.5-235.5q0-118-61.5-210.5t-244.5-231.5l-364-277 2-2h733v-96z"/><glyph horiz-adv-x="1053" d="M927 775q0-136-85.5-229t-229.5-119v-6q176-22 268-112t92-242q0-205-139.5-317.5t-401.5-112.5q-223 0-389 83v99q84-44 188.5-69t196.5-25q221 0 332 89.5t111 252.5q0 145-113.5 223t-333.5 78h-158v96h160q182 0 288.5 86.5t106.5 234.5q0 122-86.5 195.5t-226.5 73.5q-109 0-199-30.5t-202-104.5l-49 67q85 71 205 112.5t243 41.5q202 0 312-95.5t110-269.5z"/><glyph horiz-adv-x="1161" d="M1120 37h-252v-381h-94v381h-751v67l725 1014h120v-995h252v-86zm-346 86v401q0 298 14 508h-8q-23-44-123-188l-516-721h633z"/><glyph horiz-adv-x="1124" d="M524 536q234 0 368.5-113t134.5-311q0-225-140-350t-386-125q-109 0-207 21.5t-164 61.5v103q108-55 192-76.5t179-21.5q192 0 308 101.5t116 274.5q0 163-113 256t-307 93q-130 0-272-39l-60 39 58 669h704v-96h-610l-45-516q156 29 244 29z"/><glyph d="M131 623q0 285 77.5 479.5t220 288.5 343.5 94q94 0 172-23v-88q-73 27-176 27-247 0-384.5-178t-154.5-518h13q76 98 174 148t207 50q205 0 320.5-117t115.5-323q0-224-121.5-353.5t-327.5-129.5q-222 0-350.5 169.5t-128.5 473.5zm479-555q164 0 255 103t91 294q0 168-90 262t-245 94q-102 0-189.5-45t-139.5-119.5-52-152.5q0-111 49.5-213.5t134-162.5 186.5-60z"/><glyph horiz-adv-x="1069" d="M272-343l602 1366h-827v96h946v-73l-604-1389h-117z"/><glyph d="M584 1487q186 0 299.5-95t113.5-257q0-112-70.5-198t-228.5-159q192-79 270-173t78-228q0-181-126.5-289t-339.5-108q-221 0-339 101t-118 294q0 131 83 230t257 169q-161 76-227 160.5t-66 202.5q0 105 53 184.5t148.5 122.5 212.5 43zm-359-1127q0-138 93.5-214t261.5-76q164 0 264 80.5t100 218.5q0 124-78.5 201.5t-302.5 162.5q-184-71-261-157t-77-216zm357 1037q-141 0-226.5-69.5t-85.5-190.5q0-70 31.5-123.5t91-97 199.5-101.5q163 63 234 139t71 183q0 120-84.5 190t-230.5 70z"/><glyph d="M1040 499q0-288-75.5-482t-220-287-349.5-93q-104 0-192 26v86q43-14 103.5-21.5t92.5-7.5q247 0 387 178.5t156 520.5h-12q-73-96-174-147.5t-211-51.5q-203 0-316.5 112t-113.5 318q0 220 124.5 356t323.5 136q144 0 252-75.5t166.5-221.5 58.5-346zm-477 555q-158 0-252-106.5t-94-291.5q0-174 87-264t249-90q101 0 188.5 45t139 119.5 51.5 151.5q0 117-46.5 219t-130 159.5-192.5 57.5z"/></font>
</defs>
</svg>
