<svg xmlns="http://www.w3.org/2000/svg" viewBox="0 0 273 51" enable-background="new 0 0 273 51"><style type="text/css">.st0{fill:#752590;} .st1{opacity:0.61;fill:url(#Shape_7_);enable-background:new ;} .st2{fill:url(#Shape_8_);} .st3{fill:url(#Shape_9_);} .st4{fill:url(#Shape_10_);} .st5{fill:url(#Shape_11_);} .st6{fill:url(#Shape_12_);} .st7{fill:url(#Shape_13_);} .st8{opacity:0.71;fill:url(#SVGID_1_);} .st9{fill:#FFFFFF;}</style><title>logo-welsh</title><desc>Created with Sketch.</desc><path class="st0" d="M68 31c.1 0 .3 0 .4.1.1 0 .3.1.4.2l2.1 2.3c-.9 1.2-2.1 2.2-3.5 2.8s-3.1.9-5 .9c-1.8 0-3.4-.3-4.8-.9-1.4-.6-2.6-1.4-3.6-2.5s-1.7-2.3-2.2-3.8c-.5-1.5-.8-3-.8-4.7 0-1.7.3-3.3.8-4.8s1.4-2.7 2.4-3.8 2.3-1.9 3.7-2.5 3-.9 4.7-.9c.9 0 1.7.1 2.5.2.8.2 1.5.4 2.2.6s1.3.6 1.9 1 1.1.8 1.5 1.2l-1.9 2.6-.4.4s-.4.2-.7.2c-.2 0-.4 0-.5-.1-.2-.1-.4-.2-.5-.3l-.7-.5c-.2-.1-.5-.3-.8-.4s-.7-.2-1.2-.3c-.4-.1-.9-.1-1.5-.1-.9 0-1.7.2-2.5.5s-1.4.8-1.9 1.4c-.5.6-1 1.4-1.2 2.3s-.4 2-.4 3.2c0 1.2.2 2.3.5 3.2s.8 1.7 1.3 2.3c.6.6 1.2 1.1 2 1.4.7.3 1.5.5 2.4.5.5 0 .9 0 1.3-.1s.8-.1 1.1-.2c.4-.1.7-.3 1-.4s.6-.4.9-.7l.4-.3h.6zm20.1-10.6l-8.9 20.9c-.1.3-.3.6-.5.7s-.6.2-1 .2h-3.7l3.2-6.7-6.6-15.1h4.4c.4 0 .7.1.9.3.2.2.4.4.5.6l2.7 7.2c.3.7.5 1.3.6 2l.4-1c.1-.3.2-.7.4-1l2.5-7.1c.1-.2.3-.5.5-.6.2-.2.5-.2.8-.2h3.8zm3 16.6v-13.2l-1.1-.2c-.4-.1-.7-.2-.9-.4s-.3-.4-.3-.8v-2h2.3v-.9c0-.9.2-1.8.5-2.6s.7-1.4 1.3-2c.6-.5 1.3-1 2.1-1.3s1.8-.4 2.8-.4c.4 0 .8 0 1.1.1.3 0 .7.1 1.1.2l-.2 2.5c0 .2-.1.3-.1.4l-.3.3s-.3.1-.4.2h-.4c-.4 0-.8 0-1.2.1-.3.1-.6.2-.9.5-.2.2-.4.5-.5.9s-.2.8-.2 1.4v.8h3.9v3.4h-3.7v13h-4.9zm15.3-14c.5-.9 1.1-1.6 1.8-2.1s1.4-.8 2.3-.8c.7 0 1.4.2 1.8.5l-.3 3.6c-.1.2-.1.4-.3.5s-.3.1-.5.1h-1.6c-.7 0-1.3.2-1.7.6s-.8.9-1.1 1.6v10h-5v-16.6h2.9c.2 0 .5 0 .6.1s.3.1.4.2c.1.1.2.2.3.4s.1.3.2.5l.2 1.4zm12.9-2.6v16.6h-5v-16.6h5zm.5-4.5c0 .4-.1.8-.2 1.1-.2.3-.4.7-.7.9s-.6.5-1 .6c-.4.2-.8.2-1.2.2-.4 0-.8-.1-1.1-.2-.4-.2-.7-.4-.9-.6s-.5-.6-.6-.9-.2-.7-.2-1.1c0-.4.1-.8.2-1.1.2-.4.4-.7.6-.9s.6-.5.9-.6c.4-.1.7-.2 1.1-.2.4 0 .8.1 1.2.2.4.1.7.4 1 .6s.5.6.7.9c.1.3.2.7.2 1.1zm4.4 21.1v-13.2l-1.1-.2c-.4-.1-.7-.2-.9-.4s-.3-.4-.3-.8v-2h2.3v-.2c0-1 .2-1.9.5-2.8s.9-1.7 1.6-2.3 1.7-1.2 2.8-1.6 2.5-.6 4-.6c.5 0 1 0 1.5.1.5 0 1 .1 1.3.2l-.2 2.5c0 .3-.2.4-.4.5s-.5.1-.8.1c-1.1 0-2 .1-2.8.3-.7.2-1.3.4-1.7.8s-.7.8-.9 1.3c-.2.5-.2 1.1-.2 1.7v.1h10.5v16.5h-5v-13.2h-5.4v13.2h-4.8zm27.6-6.8c-1 0-1.8.1-2.4.3s-1.1.3-1.5.5-.6.4-.8.7-.2.5-.2.8c0 .6.2 1 .5 1.2s.8.3 1.4.3c.6 0 1.2-.1 1.7-.3s1-.6 1.5-1.1l-.2-2.4zm-8.9-7.5c1-.9 2.1-1.5 3.3-2s2.5-.6 3.9-.6c1 0 1.9.2 2.7.5.8.3 1.5.8 2 1.4.6.6 1 1.3 1.3 2.1.3.8.4 1.7.4 2.6v10.3h-2.3c-.5 0-.8-.1-1.1-.2-.2-.1-.4-.4-.6-.8l-.4-.9c-.4.4-.8.7-1.2.9s-.8.5-1.2.7-.8.3-1.3.4c-.5.1-1 .1-1.5.1-.8 0-1.4-.1-2.1-.3-.6-.2-1.1-.5-1.6-.9-.4-.4-.8-.9-1-1.4s-.4-1.2-.4-2c0-.6.1-1.2.4-1.8s.8-1.2 1.6-1.7c.7-.5 1.7-.9 3-1.3s2.8-.5 4.7-.6v-.7c0-1-.2-1.7-.6-2.1-.4-.4-1-.6-1.7-.6-.6 0-1.1.1-1.4.2s-.7.3-1 .4-.6.3-.9.4-.6.2-1 .2c-.3 0-.6-.1-.9-.3l-.6-.6-.5-1.4zm27.2 2.2c-.4-.4-.8-.7-1.2-.9-.4-.2-.9-.2-1.4-.2-.5 0-.9.1-1.3.3s-.7.5-1 .9-.5.9-.7 1.6-.2 1.4-.2 2.3c0 .9.1 1.6.2 2.2s.3 1.1.5 1.4c.2.4.5.6.8.8s.7.2 1.1.2c.4 0 .7 0 1-.1s.6-.2.8-.3c.2-.1.5-.3.7-.5s.4-.4.6-.7l.1-7zm5-11.9v24h-3.1c-.6 0-1-.3-1.2-.8l-.4-1.3c-.3.4-.7.7-1 1-.4.3-.8.5-1.2.7-.4.2-.9.4-1.4.5s-1 .2-1.6.2c-.9 0-1.7-.2-2.4-.6s-1.4-.9-1.9-1.7c-.5-.7-1-1.6-1.3-2.7-.3-1.1-.5-2.2-.5-3.6 0-1.2.2-2.4.5-3.4.3-1.1.8-2 1.4-2.8s1.4-1.4 2.2-1.8 1.8-.7 2.9-.7c.9 0 1.6.1 2.2.4.6.2 1.1.6 1.6 1v-8.4h5.2zm20 12.1c1.4 0 2.4-.3 3-1 .6-.7.9-1.6.9-2.8 0-.5-.1-1-.2-1.5s-.4-.8-.7-1.1-.7-.6-1.2-.7c-.5-.2-1.1-.3-1.8-.3h-2.8v7.4h2.8zm0-11.4c1.6 0 3.1.2 4.2.6s2.1.9 2.9 1.6c.8.7 1.3 1.5 1.7 2.4s.5 1.9.5 3c0 1.2-.2 2.2-.6 3.2s-.9 1.8-1.7 2.5-1.7 1.2-2.9 1.6-2.6.6-4.2.6h-2.8v7.8h-5.4v-23.3h8.3zm16.2 9.3c.5-.9 1.1-1.6 1.8-2.1s1.4-.8 2.3-.8c.7 0 1.4.2 1.8.5l-.3 3.6c-.1.2-.1.4-.3.5s-.3.1-.5.1h-1.6c-.7 0-1.3.2-1.7.6-.4.4-.8.9-1.1 1.6v10h-5v-16.6h2.9c.2 0 .5 0 .6.1s.3.1.4.2c.1.1.2.2.3.4s.1.3.2.5l.2 1.4zm16.2 7.2c-1 0-1.8.1-2.4.3s-1.1.3-1.5.5-.6.4-.8.7-.2.5-.2.8c0 .6.2 1 .5 1.2s.8.3 1.4.3c.6 0 1.2-.1 1.7-.3s1-.6 1.5-1.1l-.2-2.4zm-8.9-7.5c1-.9 2.1-1.5 3.3-2s2.5-.6 3.9-.6c1 0 1.9.2 2.7.5.8.3 1.5.8 2 1.4.6.6 1 1.3 1.3 2.1.3.8.4 1.7.4 2.6v10.3h-2.3c-.5 0-.8-.1-1.1-.2-.2-.1-.4-.4-.6-.8l-.4-.9c-.4.4-.8.7-1.2.9s-.8.5-1.2.7-.8.3-1.3.4c-.5.1-1 .1-1.5.1-.8 0-1.4-.1-2.1-.3-.6-.2-1.1-.5-1.6-.9-.4-.4-.8-.9-1-1.4s-.4-1.2-.4-2c0-.6.1-1.2.4-1.8s.8-1.2 1.6-1.7c.7-.5 1.7-.9 3-1.3s2.8-.5 4.7-.6v-.7c0-1-.2-1.7-.6-2.1-.4-.4-1-.6-1.7-.6-.6 0-1.1.1-1.4.2s-.7.3-1 .4-.6.3-.9.4-.6.2-1 .2c-.3 0-.6-.1-.9-.3l-.6-.6-.5-1.4zm41.4-2.3l-5.2 16.6h-4c-.2 0-.4-.1-.5-.2-.1-.1-.3-.3-.4-.6l-2.4-8.3-.3-1.1s-.2-.7-.2-1.1c-.1.4-.2.7-.2 1.1l-.3 1.1-2.4 8.2c-.2.6-.5.8-1.1.8h-3.8l-5.2-16.6h4c.4 0 .6.1.9.2.2.2.4.4.5.6l1.7 7.4c.1.6.3 1.1.4 1.6s.2 1.1.3 1.6l.4-1.6s.3-1.1.5-1.6l2.1-7.5c.1-.2.2-.5.5-.6.2-.2.5-.2.8-.2h2.2c.4 0 .6.1.9.2.2.2.4.4.5.6l2 7.5.5 1.6c.2.5.3 1.1.4 1.6l.3-1.6c.1-.5.3-1.1.4-1.7l1.8-7.4c.1-.2.2-.5.5-.6.2-.2.5-.2.8-.2-.2.2 3.6.2 3.6.2zm3.2 16.6v-13.2l-1.1-.2c-.4-.1-.7-.2-.9-.4s-.3-.4-.3-.8v-2h2.3v-.9c0-.9.2-1.8.5-2.6s.7-1.4 1.3-2c.6-.5 1.3-1 2.1-1.3s1.8-.4 2.8-.4c.4 0 .8 0 1.1.1.3 0 .7.1 1.1.2l-.1 2.4c0 .2-.1.3-.1.4l-.3.3s-.3.1-.4.2h-.4c-.4 0-.8 0-1.2.1-.3.1-.6.2-.9.5-.2.2-.4.5-.5.9-.1.4-.2.8-.2 1.4v.8h3.9v3.4h-3.7v13.1h-5z"/><linearGradient id="Shape_7_" gradientUnits="userSpaceOnUse" x1="-446.733" y1="438.52" x2="-445.733" y2="438.52" gradientTransform="matrix(37.416 0 0 -50.188 16715.354 22033.748)"><stop offset="0" stop-color="#783D8F"/><stop offset="1" stop-color="#682782"/></linearGradient><path id="Shape" class="st1" d="M25.2 32.7v5.1h-12.2v-25.1h12.1v5.1h12.6v-5.2l-12.6-12.4h-12.1c-1 1-12.1 12.1-12.6 12.5v25.3l12.6 12.4v-.1h12.1l12.6-12.5h.1v-5.1h-12.6z"/><linearGradient id="Shape_8_" gradientUnits="userSpaceOnUse" x1="36.571" y1="39.692" x2="28.355" y2="32.373"><stop offset="0" stop-color="#6E298D"/><stop offset="1" stop-color="#8D63A7"/></linearGradient><path id="Shape_1_" class="st2" d="M25.3 32.7h12.6v5.1h-12.6v-5.1z"/><linearGradient id="Shape_9_" gradientUnits="userSpaceOnUse" x1="-422.31" y1="436.333" x2="-421.971" y2="435.769" gradientTransform="matrix(12.628 0 0 -37.67 5337.72 16452.037)"><stop offset="0" stop-color="#783E95"/><stop offset="1" stop-color="#794096" stop-opacity=".8"/></linearGradient><path id="Shape_2_" class="st3" d="M.5 37.8l12.6 12.5v-37.6h-12.6v25.1z"/><linearGradient id="Shape_10_" gradientUnits="userSpaceOnUse" x1="-439.804" y1="414.647" x2="-440.087" y2="415.039" gradientTransform="matrix(24.73 0 0 -12.518 10905.165 5236.956)"><stop offset="0" stop-color="#8D63A7" stop-opacity=".8"/><stop offset=".187" stop-color="#926AAB" stop-opacity=".837"/><stop offset="1" stop-color="#A686BB"/></linearGradient><path id="Shape_3_" class="st4" d="M37.8 37.8l-12.6 12.5h-12.1v-12.5h24.7z"/><linearGradient id="Shape_11_" gradientUnits="userSpaceOnUse" x1="-421.824" y1="423.97" x2="-422.639" y2="423.97" gradientTransform="matrix(12.628 0 0 -17.618 5362.449 7478.482)"><stop offset="0" stop-color="#824F9E" stop-opacity=".5"/><stop offset=".627" stop-color="#773A95" stop-opacity=".813"/><stop offset="1" stop-color="#6F2B8E"/></linearGradient><path id="Shape_4_" class="st5" d="M25.2 17.8h12.6v-5.2l-12.6-12.4v17.6z"/><linearGradient id="Shape_12_" gradientUnits="userSpaceOnUse" x1="12.803" y1="10.47" x2="12.803" y2="14.644"><stop offset="0" stop-color="#613A71"/><stop offset=".311" stop-color="#663C76" stop-opacity=".689"/><stop offset=".68" stop-color="#744284" stop-opacity=".32"/><stop offset="1" stop-color="#874996" stop-opacity="0"/></linearGradient><path id="Shape_5_" class="st6" d="M25.2 12.7h-24.8c6.1 2.3 18 2.5 24.8 0z"/><linearGradient id="Shape_13_" gradientUnits="userSpaceOnUse" x1="-440.492" y1="414.835" x2="-439.486" y2="414.835" gradientTransform="matrix(24.788 0 0 -12.518 10919.16 5199.343)"><stop offset="0" stop-color="#CCBBDB"/><stop offset="1" stop-color="#9973B1" stop-opacity=".8"/></linearGradient><path id="Shape_6_" class="st7" d="M25.2.2h-12.2l-12.5 12.5h24.8l-.1-12.5z"/><linearGradient id="SVGID_1_" gradientUnits="userSpaceOnUse" x1="-129.429" y1="434.619" x2="-126.919" y2="434.619" gradientTransform="matrix(1.39 0 0 -33.556 192.192 14617.647)"><stop offset="0" stop-color="#834F9D"/><stop offset="1" stop-color="#874996" stop-opacity="0"/></linearGradient><path class="st8" d="M14.4 32.2c-.2-5.4-.6-11.1-1.3-15.4v33.6c.9-6.6 1.6-13.2 1.3-18.2z"/><path class="st9" d="M5.5 36.8c-.5-.5-.8-1-.8-1.5 0-.3.2-.6.6-.6.5 0 .8.3 1.3.7l2.7 2.4h1.2v-5.4h-1.6v2.7l-1.6-1.4c-.8-.7-1.4-1-2.2-1-1.3-.1-2.1.7-2.1 2.3 0 1 .5 2.1 1.3 2.8l1.2-1zm-2.5-7.6c0 1.7 1.1 2.8 3.8 2.8 2.6 0 3.8-.9 3.8-2.8 0-1.8-1.1-2.8-3.9-2.8-2.6 0-3.7 1-3.7 2.8zm6.1 0c0 .5-.5.9-2.2.9-1.8 0-2.4-.3-2.4-.9 0-.5.5-.9 2.2-.9 1.9 0 2.4.4 2.4.9zm-.1-4.1h1.4v-4.4h-1.4v1.3h-4.5l-1.4-.1v1.6l1.4 2.4 1.3-.7-.6-1.2h3.8v1.1zm-4.3-4.9v-2.8c1.8 1.7 3.7 1.9 5 1.9h.8v-2h-.8c-1 0-3.5 0-5.4-2.3h-1.2v5.3l1.6-.1z"/></svg>